<svg version="1.1" id="Layer_1" xmlns="http://www.w3.org/2000/svg" xmlns:xlink="http://www.w3.org/1999/xlink" x="0px" y="0px"
	 width="100%" viewBox="0 0 896 896" enable-background="new 0 0 896 896" xml:space="preserve">
<path fill="#000000" opacity="1.000000" stroke="none" 
	d="
M442.795349,415.317261 
	C452.845795,442.187042 462.438263,468.807343 473.033325,495.062073 
	C482.219360,517.825317 518.972168,518.880554 531.034668,504.736786 
	C541.654358,492.284790 539.487366,473.726776 525.349365,465.562897 
	C518.244873,461.460449 510.357635,459.180969 502.657227,456.483978 
	C496.377808,454.284637 489.961243,452.336792 483.951385,449.535370 
	C469.038025,442.583588 459.801270,427.443512 460.730530,412.369537 
	C461.815033,394.776520 471.922943,381.282562 488.805725,376.121399 
	C505.891754,370.898132 522.707458,371.696594 538.469910,380.897461 
	C541.727234,382.798859 543.284607,381.580994 544.992493,379.136536 
	C545.919739,377.809296 546.817566,375.911865 548.814026,376.607025 
	C550.851746,377.316589 550.178650,379.431885 550.188599,380.996185 
	C550.246765,390.159698 550.232849,399.323853 550.199524,408.487610 
	C550.194275,409.922241 550.565063,411.531311 548.975769,412.639038 
	C546.231873,412.727539 546.202332,410.330017 545.418701,408.649719 
	C540.263672,397.596558 533.869263,387.540405 522.637451,381.679810 
	C512.626892,376.456482 502.360046,376.530975 492.385132,381.590057 
	C476.780029,389.504730 473.141724,415.003632 491.551544,426.190887 
	C501.347778,432.143799 512.502197,434.654114 523.087158,438.606903 
	C526.205566,439.771393 529.394287,440.762604 532.462341,442.044800 
	C549.910645,449.336578 558.019348,462.359680 557.285767,481.767273 
	C556.719971,496.737976 546.152466,509.819550 530.023804,515.306824 
	C515.221558,520.342957 500.207397,520.654602 485.317902,516.058899 
	C477.712952,513.711609 470.145569,512.619812 462.239380,512.911133 
	C455.583252,513.156372 448.911804,513.003784 442.247192,512.987976 
	C440.466217,512.983765 438.559357,513.292603 437.108917,511.650177 
	C437.973663,508.801788 440.690430,509.555786 442.507874,508.873749 
	C448.947266,506.457031 450.750366,503.665436 448.799042,497.074799 
	C446.295563,488.618988 443.320465,480.303894 440.686890,471.884949 
	C439.780457,468.987244 438.076935,468.020721 435.129608,468.205688 
	C418.973602,469.219574 403.186005,467.728943 388.439636,460.589935 
	C387.804199,461.090698 387.248657,461.306793 387.083679,461.690704 
	C382.156891,473.157806 377.066681,484.577179 373.515442,496.562042 
	C371.584778,503.077789 374.089874,506.729401 380.909515,508.559326 
	C383.041229,509.131348 385.625916,508.697052 386.990234,511.102478 
	C386.486877,513.592651 384.545959,513.139160 383.011871,513.147644 
	C372.681885,513.204956 362.351471,513.210205 352.021362,513.173950 
	C350.447113,513.168396 348.246277,513.667969 347.897949,511.443024 
	C347.539429,509.152832 349.805939,509.028656 351.322998,508.678009 
	C357.755188,507.191315 361.510559,502.598633 364.509521,497.266083 
	C371.136963,485.481659 375.968964,472.857178 381.466644,460.543610 
	C382.654510,457.883087 381.290222,456.727997 379.340118,455.322571 
	C337.368988,425.074493 340.309479,358.475159 384.842377,332.188446 
	C400.462860,322.968048 417.714050,319.628296 435.643097,319.865692 
	C440.386230,319.928497 442.732483,318.525269 444.553833,314.109131 
	C450.457489,299.794922 456.876587,285.694061 462.996796,271.467804 
	C464.108124,268.884644 465.501678,267.515961 468.552795,267.560059 
	C471.510559,267.602875 472.550446,269.131287 473.437073,271.531464 
	C484.915771,302.606628 496.456604,333.658813 507.954071,364.727051 
	C508.402557,365.938995 509.060333,367.186035 508.435516,368.775787 
	C502.383301,370.072937 495.991058,369.835754 489.879791,371.611938 
	C486.833771,372.497253 486.499878,369.454041 485.906738,367.554596 
	C482.230377,355.781647 475.675018,345.940369 466.349152,337.927155 
	C460.092529,332.551239 453.106140,328.533569 444.455231,326.321167 
	C440.501007,335.313721 436.649811,344.122284 432.757568,352.912659 
	C425.428040,369.466034 425.438843,369.453796 431.921356,386.446045 
	C435.540588,395.932861 439.078033,405.450897 442.795349,415.317261 
M386.699890,435.722565 
	C387.682098,436.967316 388.007965,438.850128 390.537567,439.259430 
	C406.786987,401.368134 423.067596,363.404175 439.457092,325.186340 
	C438.124329,324.806702 437.516174,324.514465 436.891266,324.472717 
	C415.822784,323.065735 398.523071,330.414795 387.555420,348.608093 
	C370.488739,376.918640 371.042389,406.045959 386.699890,435.722565 
M394.656403,442.930786 
	C393.900085,444.946014 394.735596,446.463684 396.153351,447.823700 
	C405.833801,457.109894 417.087189,463.022919 430.698883,463.672180 
	C437.133942,463.979126 437.583221,463.273956 435.322937,457.409698 
	C431.259827,446.868225 427.193542,436.327728 423.062256,425.812866 
	C419.808990,417.532776 416.455963,409.291870 413.147247,401.033569 
	C412.728424,401.002380 412.309631,400.971191 411.890808,400.940002 
	C406.240845,414.704376 400.590881,428.468750 394.656403,442.930786 
M449.007507,321.041962 
	C456.088898,322.482025 462.918243,324.823303 470.696747,327.614410 
	C466.370178,316.706390 462.420563,306.748749 458.470947,296.791107 
	C454.080811,304.118286 451.043060,311.265564 448.020996,318.419464 
	C447.677582,319.232391 447.717926,320.032104 449.007507,321.041962 
z"/>
<path fill="#000000" opacity="1.000000" stroke="none" 
	d="
M611.306152,568.557983 
	C612.331421,569.765503 613.156860,570.702759 614.757080,572.519714 
	C614.757080,566.915833 614.832092,562.475830 614.730591,558.039795 
	C614.663330,555.099060 615.901611,553.826721 618.859131,553.789429 
	C621.944031,553.750610 623.423889,554.835266 623.375732,558.135315 
	C623.254456,566.443359 623.382935,574.754761 623.312012,583.063965 
	C623.296204,584.918518 624.009949,587.368469 621.206726,587.973938 
	C618.691589,588.517151 616.265259,588.409241 614.474670,586.018311 
	C610.789551,581.097473 607.038330,576.225891 603.282593,571.358521 
	C602.812927,570.749817 602.151611,570.289001 600.865356,569.099609 
	C600.865356,574.337341 600.863159,578.723694 600.866150,583.110046 
	C600.868103,586.036926 600.401917,588.333923 596.534363,588.237183 
	C592.920471,588.146790 592.641663,586.018799 592.656189,583.274658 
	C592.699341,575.131226 592.635864,566.987244 592.685181,558.843872 
	C592.695740,557.101562 592.168884,554.859436 594.505432,554.183167 
	C596.945923,553.476807 599.534302,553.356873 601.362793,555.670715 
	C604.657104,559.839661 607.863342,564.078186 611.306152,568.557983 
z"/>
<path fill="#000000" opacity="1.000000" stroke="none" 
	d="
M722.312134,575.680298 
	C722.415894,580.434204 727.134216,582.827820 727.747131,587.572754 
	C722.952515,588.853333 718.839233,589.034912 716.368774,583.836914 
	C716.086853,583.243652 715.660583,582.711975 715.258850,582.183960 
	C713.699829,580.134888 712.647766,576.900574 709.373779,577.733337 
	C705.954102,578.603210 707.454773,581.903625 707.383484,584.143799 
	C707.286560,587.188538 705.980530,588.206970 703.103394,588.226135 
	C700.151917,588.245850 698.833801,587.014465 698.850403,584.084412 
	C698.900208,575.279480 698.884583,566.474243 698.910950,557.669128 
	C698.916992,555.663635 699.458252,553.888733 701.868774,553.887695 
	C707.338562,553.885315 712.834656,553.268921 718.272095,554.252136 
	C722.667480,555.046936 726.025085,557.243225 727.220337,561.823547 
	C728.669373,567.376953 727.235962,571.989563 722.312134,575.680298 
M718.510254,564.083557 
	C717.249268,561.963257 715.163025,561.450806 712.955139,561.455017 
	C710.614685,561.459473 707.549072,560.563904 707.408081,564.480469 
	C707.330383,566.639893 706.511353,569.239014 710.095398,569.835938 
	C715.419495,570.722534 717.923218,569.385742 718.510254,564.083557 
z"/>
<path fill="#000000" opacity="1.000000" stroke="none" 
	d="
M419.226379,567.485840 
	C419.828979,580.847900 413.415222,588.363708 401.785034,588.422058 
	C392.006500,588.471130 384.864227,582.844177 383.621674,574.112244 
	C382.286255,564.727661 387.558960,556.359070 396.246185,554.075378 
	C405.811462,551.560791 414.880737,555.880127 418.445099,564.668091 
	C418.756104,565.434875 418.932312,566.256409 419.226379,567.485840 
M408.372894,577.838562 
	C411.531494,572.722168 411.675446,567.885559 408.570190,564.555481 
	C405.574402,561.342712 401.864899,560.152466 397.734741,561.984558 
	C393.148224,564.019104 391.785797,567.949768 392.332397,572.680725 
	C393.205780,580.240662 400.738892,582.998962 408.372894,577.838562 
z"/>
<path fill="#000000" opacity="1.000000" stroke="none" 
	d="
M658.170654,580.093750 
	C662.639832,580.464844 666.790894,580.674377 670.942322,580.680603 
	C673.561584,580.684570 675.038574,581.552429 675.032104,584.401062 
	C675.025879,587.149231 673.758240,588.276672 671.049133,588.241943 
	C664.887451,588.162903 658.723938,588.167664 652.561707,588.208130 
	C649.816223,588.226135 648.693604,586.953369 648.710510,584.246948 
	C648.765747,575.419678 648.766968,566.591431 648.701538,557.764282 
	C648.681213,555.027649 649.865479,553.804199 652.575745,553.817871 
	C658.738159,553.848999 664.901062,553.840515 671.063416,553.798462 
	C673.814575,553.779663 674.949219,555.173645 674.971619,557.804749 
	C674.996582,560.731262 673.292297,561.440857 670.762512,561.386597 
	C667.599487,561.318726 664.433289,561.354614 661.269104,561.394104 
	C659.438538,561.416870 657.365662,561.227295 657.307495,563.954712 
	C657.244324,566.922791 659.418640,566.869751 661.472595,566.898560 
	C663.970520,566.933655 666.468811,566.957703 668.966919,566.961243 
	C671.409790,566.964722 672.591370,567.978699 672.506226,570.605347 
	C672.426208,573.070190 671.967041,574.902649 669.013794,574.913635 
	C666.349426,574.923462 663.684753,574.951172 661.020996,575.008545 
	C657.640930,575.081238 656.478638,576.642151 658.170654,580.093750 
z"/>
<path fill="#000000" opacity="1.000000" stroke="none" 
	d="
M784.427490,586.400024 
	C780.271790,589.348450 777.168579,588.953735 775.414795,584.839661 
	C773.455017,580.242126 769.829285,580.974548 766.229004,580.873047 
	C762.721924,580.774231 759.778381,581.061523 758.402588,585.236145 
	C756.929260,589.706543 753.253479,588.164429 750.290161,587.792969 
	C749.434204,586.520691 749.684998,585.554871 750.081848,584.624329 
	C753.865784,575.751953 757.698608,566.900208 761.436035,558.008362 
	C762.564209,555.324463 764.028076,553.637451 767.315308,553.687195 
	C770.451782,553.734619 771.639343,555.497192 772.657898,557.961609 
	C776.530518,567.331909 780.476807,576.671814 784.427490,586.400024 
M769.069336,572.084412 
	C769.510803,569.652466 768.414490,567.829102 766.977966,565.781311 
	C765.439758,567.955200 764.598633,569.830994 764.797424,572.002808 
	C766.015503,573.110413 767.285645,572.909241 769.069336,572.084412 
z"/>
<path fill="#000000" opacity="1.000000" stroke="none" 
	d="
M559.441956,562.608704 
	C562.776123,570.936279 566.749695,578.608459 569.436157,587.094360 
	C564.948120,588.815491 561.409424,589.173035 559.852112,584.106750 
	C558.749634,580.519775 556.041016,580.293762 553.129395,580.481201 
	C549.789185,580.696228 545.585388,579.467834 544.013062,583.757874 
	C542.224487,588.637878 538.995972,588.737610 535.103455,587.770508 
	C534.083557,585.903076 535.005371,584.582153 535.571533,583.237854 
	C538.997498,575.102966 542.416504,566.964844 545.904724,558.856567 
	C547.014099,556.277954 547.968201,553.749390 551.742981,553.702881 
	C555.720032,553.653931 556.805969,556.181152 557.945251,559.029541 
	C558.378174,560.112000 558.850464,561.178711 559.441956,562.608704 
M553.158813,567.711243 
	C552.791199,567.200623 552.130676,566.224976 552.097778,566.245728 
	C549.837585,567.669312 549.440979,569.919678 549.237122,572.302124 
	C551.077332,573.103821 552.605225,573.233459 554.042358,572.145447 
	C554.585266,570.696045 553.693909,569.550476 553.158813,567.711243 
z"/>
<path fill="#000000" opacity="1.000000" stroke="none" 
	d="
M197.588196,583.664673 
	C193.833893,579.026611 183.855042,579.359497 181.817398,584.188721 
	C179.849060,588.853638 176.721909,588.605774 173.076111,587.767273 
	C171.936295,586.242920 172.756287,585.033203 173.252731,583.854858 
	C176.932053,575.121826 180.691299,566.422180 184.316910,557.667053 
	C185.387619,555.081543 186.851364,553.687622 189.877075,553.710266 
	C192.905670,553.732849 194.293579,555.156799 195.361221,557.755920 
	C198.771149,566.057312 202.382874,574.275635 205.859634,582.549988 
	C206.480957,584.028625 207.536438,585.491150 206.679855,587.504456 
	C202.789139,588.817566 199.304672,589.042236 197.588196,583.664673 
M188.782715,567.005615 
	C188.086792,568.663330 186.933548,570.187439 187.243240,572.198486 
	C188.804733,573.162354 190.339737,573.134949 191.890259,572.271790 
	C191.566971,568.274475 191.566971,568.274475 188.782715,567.005615 
z"/>
<path fill="#000000" opacity="1.000000" stroke="none" 
	d="
M292.450897,580.467407 
	C288.632050,580.580505 286.132507,581.609375 284.790405,585.268066 
	C283.207947,589.581909 279.718781,588.362183 276.112549,587.373535 
	C277.237335,581.705444 280.103149,576.979553 282.071503,571.936462 
	C284.005951,566.980164 286.200684,562.125977 288.238403,557.209229 
	C289.153961,555.000061 290.534271,553.689575 293.125031,553.776611 
	C295.394684,553.852966 297.440277,554.005615 298.474396,556.483765 
	C302.510010,566.154907 306.590942,575.807068 310.614471,585.483154 
	C310.846771,586.041809 310.719604,586.749939 310.770233,587.556274 
	C306.457001,588.664978 302.823212,589.152039 301.289124,583.623413 
	C300.021881,579.056335 295.982971,580.726624 292.450897,580.467407 
M290.921356,570.967529 
	C291.806030,574.372070 294.023560,572.470825 296.006104,572.503601 
	C295.955109,569.842163 295.028137,567.980042 293.112579,566.047607 
	C292.324005,567.752014 291.720520,569.056519 290.921356,570.967529 
z"/>
<path fill="#000000" opacity="1.000000" stroke="none" 
	d="
M253.724167,572.593201 
	C257.089142,581.912781 252.833374,588.071472 243.328796,588.423645 
	C238.700104,588.595215 234.416855,587.709656 230.516098,585.122192 
	C228.689972,583.910889 227.920761,582.500305 229.441101,580.600830 
	C230.712067,579.012939 231.632355,576.528320 234.500977,578.461365 
	C237.195312,580.277039 240.167511,581.229919 243.477020,580.781616 
	C244.905838,580.588074 246.151550,580.040588 246.284393,578.458618 
	C246.399200,577.091431 245.291824,576.379150 244.169189,575.993713 
	C241.342758,575.023254 238.472855,574.180420 235.630814,573.254333 
	C231.018234,571.751465 228.944687,568.207703 229.099747,563.713867 
	C229.253571,559.255066 231.507980,555.743347 236.100327,554.405640 
	C241.260239,552.902466 246.296707,553.275879 251.073792,555.891724 
	C252.825745,556.851074 254.248734,558.069092 252.828979,560.221130 
	C251.613144,562.064026 250.681961,564.769531 247.527267,563.036377 
	C245.763489,562.067383 243.989822,561.129944 241.911118,561.189148 
	C240.287155,561.235291 238.247925,560.928833 237.891006,563.145081 
	C237.595581,564.979431 239.320953,565.653687 240.695694,566.157776 
	C243.031799,567.014221 245.464676,567.603149 247.819443,568.413330 
	C250.044220,569.178772 252.110077,570.246643 253.724167,572.593201 
z"/>
<path fill="#000000" opacity="1.000000" stroke="none" 
	d="
M462.122925,563.454956 
	C459.617828,562.557434 457.658295,561.137939 455.217377,561.180725 
	C453.701813,561.207275 452.031067,561.195740 451.557281,563.028503 
	C451.063873,564.937134 452.590363,565.721985 453.995789,566.229492 
	C456.644592,567.185852 459.407288,567.832703 462.039062,568.828979 
	C466.683624,570.587280 468.723694,574.104858 468.261719,579.001770 
	C467.823608,583.645935 465.278198,586.811890 460.778320,587.887573 
	C455.292511,589.198975 449.832794,588.768188 444.872833,585.829346 
	C443.165649,584.817810 440.642517,583.717102 442.684113,580.873779 
	C444.210083,578.748596 445.765015,576.806396 448.731720,578.949280 
	C450.512634,580.235718 452.573212,580.949890 454.810852,580.867065 
	C456.578308,580.801636 458.853455,581.263855 459.377136,578.909912 
	C459.925079,576.446777 457.618744,576.033997 455.967377,575.432007 
	C453.787811,574.637329 451.480042,574.178101 449.333984,573.310852 
	C444.032227,571.168335 442.048889,567.799133 442.714203,562.450562 
	C443.283905,557.870728 446.674255,554.494690 451.681244,553.801331 
	C455.165253,553.318848 458.673462,553.441345 461.998260,554.756775 
	C463.957672,555.531921 466.708099,556.110779 466.637329,558.603210 
	C466.574188,560.825439 465.102356,562.938416 462.122925,563.454956 
z"/>
<path fill="#000000" opacity="1.000000" stroke="none" 
	d="
M119.774002,574.514648 
	C117.384254,558.821655 132.157990,548.869141 145.867752,555.149292 
	C148.012512,556.131775 151.591003,557.003479 149.517258,560.789917 
	C147.936676,563.675903 145.993546,565.149475 142.323318,562.860046 
	C137.598679,559.912903 133.157242,560.963928 130.350281,564.777466 
	C127.496750,568.654297 127.660950,574.118958 130.739761,577.738770 
	C133.728699,581.252930 138.487122,582.040222 142.891724,579.036804 
	C145.908554,576.979675 147.599701,577.692383 149.455948,580.283875 
	C151.823410,583.589111 149.008545,584.814880 147.070847,586.094482 
	C136.858887,592.838257 123.931107,587.503540 119.774002,574.514648 
z"/>
<path fill="#000000" opacity="1.000000" stroke="none" 
	d="
M332.563049,562.912048 
	C338.811035,553.450134 349.642426,550.539185 358.311401,555.764832 
	C360.075623,556.828308 362.640503,557.913757 360.746887,560.678223 
	C359.210205,562.921631 357.839844,565.484070 354.051910,563.087585 
	C349.042023,559.918030 344.555817,560.774292 341.580017,564.605408 
	C338.589203,568.455811 338.623505,573.869995 341.662018,577.563538 
	C344.686951,581.240540 349.379913,582.030212 354.223663,578.943542 
	C357.409943,576.913147 359.129578,578.117249 360.781555,580.559937 
	C362.811615,583.561646 360.169464,584.778625 358.352051,585.993103 
	C352.363281,589.994812 342.842987,589.456604 337.236847,584.964294 
	C331.000000,579.966614 329.307617,572.370667 332.563049,562.912048 
z"/>
<path fill="#000000" opacity="1.000000" stroke="none" 
	d="
M499.159912,565.782227 
	C499.810150,561.114380 496.910675,561.356506 494.154327,561.421143 
	C491.531250,561.482605 488.993927,561.494812 489.087799,557.741699 
	C489.145752,555.423706 489.888672,553.868225 492.514374,553.869934 
	C499.661560,553.874695 506.808899,553.888611 513.955872,553.845215 
	C516.737427,553.828308 517.751892,555.301025 517.839111,557.877319 
	C517.937683,560.789734 516.407898,561.848877 513.797607,561.397644 
	C508.156403,560.422424 507.001984,563.232666 507.348755,568.168091 
	C507.720734,573.462097 507.382202,578.802246 507.594971,584.112671 
	C507.718506,587.196289 506.454529,588.233643 503.510345,588.230835 
	C500.587250,588.228088 499.317017,587.220337 499.364868,584.132263 
	C499.457397,578.156311 499.238281,572.175537 499.159912,565.782227 
z"/>
</svg>