<svg xmlns="http://www.w3.org/2000/svg" xmlns:xlink="http://www.w3.org/1999/xlink" width="200" zoomAndPan="magnify" viewBox="0 0 150 74.999997" height="100" preserveAspectRatio="xMidYMid meet" version="1.0"><path fill="#000000" d="M 72.1875 35.183594 C 74.28125 40.785156 76.28125 46.332031 78.488281 51.804688 C 80.402344 56.550781 88.0625 56.769531 90.578125 53.820312 C 92.792969 51.226562 92.339844 47.359375 89.394531 45.65625 C 87.914062 44.800781 86.269531 44.328125 84.664062 43.765625 C 83.355469 43.304688 82.019531 42.898438 80.765625 42.316406 C 77.65625 40.867188 75.730469 37.710938 75.925781 34.570312 C 76.152344 30.902344 78.257812 28.089844 81.777344 27.015625 C 85.339844 25.925781 88.84375 26.09375 92.128906 28.011719 C 92.808594 28.40625 93.132812 28.152344 93.488281 27.644531 C 93.679688 27.367188 93.867188 26.972656 94.285156 27.117188 C 94.707031 27.265625 94.570312 27.703125 94.570312 28.03125 C 94.582031 29.941406 94.578125 31.851562 94.574219 33.761719 C 94.570312 34.058594 94.648438 34.394531 94.316406 34.625 C 93.746094 34.644531 93.738281 34.144531 93.578125 33.792969 C 92.503906 31.492188 91.167969 29.394531 88.828125 28.171875 C 86.742188 27.085938 84.601562 27.101562 82.523438 28.15625 C 79.269531 29.804688 78.511719 35.117188 82.347656 37.449219 C 84.390625 38.691406 86.714844 39.214844 88.921875 40.039062 C 89.570312 40.28125 90.238281 40.488281 90.875 40.753906 C 94.511719 42.273438 96.203125 44.988281 96.050781 49.035156 C 95.933594 52.152344 93.730469 54.878906 90.367188 56.023438 C 87.28125 57.074219 84.152344 57.140625 81.050781 56.179688 C 79.464844 55.691406 77.886719 55.464844 76.238281 55.523438 C 74.851562 55.578125 73.460938 55.542969 72.074219 55.542969 C 71.703125 55.539062 71.304688 55.605469 71 55.261719 C 71.183594 54.667969 71.75 54.824219 72.128906 54.683594 C 73.46875 54.179688 73.84375 53.597656 73.4375 52.222656 C 72.917969 50.460938 72.296875 48.730469 71.746094 46.972656 C 71.558594 46.371094 71.203125 46.167969 70.589844 46.207031 C 67.222656 46.417969 63.929688 46.109375 60.859375 44.621094 C 60.726562 44.722656 60.609375 44.769531 60.574219 44.847656 C 59.546875 47.238281 58.488281 49.621094 57.746094 52.117188 C 57.34375 53.476562 57.867188 54.238281 59.289062 54.617188 C 59.734375 54.738281 60.273438 54.648438 60.554688 55.148438 C 60.449219 55.667969 60.046875 55.574219 59.726562 55.574219 C 57.574219 55.585938 55.421875 55.585938 53.265625 55.578125 C 52.9375 55.578125 52.480469 55.683594 52.40625 55.21875 C 52.332031 54.742188 52.804688 54.714844 53.121094 54.644531 C 54.460938 54.332031 55.246094 53.375 55.871094 52.265625 C 57.25 49.808594 58.257812 47.175781 59.40625 44.609375 C 59.652344 44.054688 59.367188 43.816406 58.960938 43.523438 C 50.214844 37.21875 50.828125 23.335938 60.109375 17.859375 C 63.363281 15.9375 66.960938 15.238281 70.695312 15.289062 C 71.683594 15.300781 72.175781 15.011719 72.554688 14.089844 C 73.785156 11.105469 75.121094 8.167969 76.398438 5.203125 C 76.628906 4.664062 76.917969 4.378906 77.554688 4.386719 C 78.171875 4.394531 78.390625 4.714844 78.574219 5.214844 C 80.964844 11.691406 83.371094 18.164062 85.769531 24.640625 C 85.863281 24.890625 86 25.152344 85.867188 25.484375 C 84.605469 25.753906 83.273438 25.703125 82 26.074219 C 81.367188 26.257812 81.296875 25.625 81.171875 25.230469 C 80.40625 22.773438 79.039062 20.722656 77.097656 19.054688 C 75.792969 17.933594 74.335938 17.097656 72.53125 16.636719 C 71.707031 18.507812 70.90625 20.34375 70.09375 22.175781 C 68.566406 25.628906 68.570312 25.625 69.921875 29.167969 C 70.675781 31.144531 71.414062 33.128906 72.1875 35.183594 M 60.496094 39.4375 C 60.699219 39.695312 60.769531 40.089844 61.296875 40.175781 C 64.683594 32.277344 68.074219 24.363281 71.492188 16.398438 C 71.214844 16.320312 71.085938 16.257812 70.957031 16.25 C 66.566406 15.957031 62.960938 17.488281 60.671875 21.28125 C 57.117188 27.179688 57.230469 33.25 60.496094 39.4375 M 62.152344 40.9375 C 61.996094 41.359375 62.171875 41.675781 62.464844 41.960938 C 64.484375 43.894531 66.828125 45.128906 69.664062 45.261719 C 71.007812 45.328125 71.101562 45.179688 70.628906 43.957031 C 69.78125 41.761719 68.933594 39.5625 68.074219 37.371094 C 67.394531 35.644531 66.699219 33.929688 66.007812 32.207031 C 65.921875 32.199219 65.832031 32.195312 65.746094 32.1875 C 64.566406 35.054688 63.390625 37.925781 62.152344 40.9375 M 73.480469 15.535156 C 74.957031 15.835938 76.382812 16.324219 78.003906 16.90625 C 77.101562 14.632812 76.277344 12.554688 75.453125 10.480469 C 74.539062 12.007812 73.90625 13.496094 73.277344 14.988281 C 73.203125 15.15625 73.214844 15.324219 73.480469 15.535156 Z M 73.480469 15.535156 " fill-opacity="1" fill-rule="nonzero"/><path fill="#000000" d="M 107.308594 67.125 C 107.523438 67.375 107.695312 67.570312 108.027344 67.949219 C 108.027344 66.78125 108.042969 65.855469 108.023438 64.929688 C 108.007812 64.316406 108.265625 64.054688 108.882812 64.046875 C 109.527344 64.039062 109.835938 64.261719 109.824219 64.949219 C 109.800781 66.683594 109.828125 68.414062 109.8125 70.148438 C 109.808594 70.535156 109.957031 71.042969 109.371094 71.171875 C 108.847656 71.285156 108.34375 71.261719 107.96875 70.761719 C 107.203125 69.738281 106.417969 68.722656 105.636719 67.707031 C 105.539062 67.582031 105.402344 67.484375 105.132812 67.234375 C 105.132812 68.328125 105.132812 69.242188 105.132812 70.15625 C 105.132812 70.765625 105.035156 71.246094 104.230469 71.226562 C 103.476562 71.207031 103.417969 70.761719 103.421875 70.191406 C 103.429688 68.492188 103.417969 66.796875 103.429688 65.097656 C 103.429688 64.734375 103.320312 64.269531 103.808594 64.128906 C 104.316406 63.980469 104.855469 63.957031 105.238281 64.4375 C 105.921875 65.304688 106.589844 66.191406 107.308594 67.125 Z M 107.308594 67.125 " fill-opacity="1" fill-rule="nonzero"/><path fill="#000000" d="M 130.445312 68.609375 C 130.46875 69.597656 131.449219 70.097656 131.578125 71.085938 C 130.578125 71.351562 129.722656 71.390625 129.207031 70.308594 C 129.148438 70.183594 129.058594 70.074219 128.976562 69.964844 C 128.652344 69.535156 128.429688 68.863281 127.75 69.035156 C 127.035156 69.21875 127.347656 69.90625 127.335938 70.371094 C 127.3125 71.007812 127.042969 71.21875 126.441406 71.222656 C 125.828125 71.226562 125.550781 70.96875 125.554688 70.359375 C 125.566406 68.523438 125.5625 66.6875 125.570312 64.855469 C 125.570312 64.4375 125.683594 64.066406 126.183594 64.066406 C 127.324219 64.066406 128.46875 63.9375 129.605469 64.140625 C 130.519531 64.308594 131.21875 64.765625 131.46875 65.71875 C 131.769531 66.878906 131.472656 67.839844 130.445312 68.609375 M 129.652344 66.191406 C 129.390625 65.75 128.957031 65.640625 128.496094 65.644531 C 128.007812 65.644531 127.367188 65.457031 127.339844 66.273438 C 127.324219 66.722656 127.152344 67.265625 127.898438 67.390625 C 129.007812 67.574219 129.53125 67.296875 129.652344 66.191406 Z M 129.652344 66.191406 " fill-opacity="1" fill-rule="nonzero"/><path fill="#000000" d="M 67.273438 66.898438 C 67.398438 69.683594 66.0625 71.25 63.640625 71.261719 C 61.601562 71.273438 60.113281 70.101562 59.855469 68.28125 C 59.574219 66.324219 60.675781 64.582031 62.484375 64.105469 C 64.480469 63.582031 66.367188 64.480469 67.113281 66.3125 C 67.175781 66.472656 67.214844 66.644531 67.273438 66.898438 M 65.011719 69.058594 C 65.671875 67.992188 65.699219 66.984375 65.054688 66.289062 C 64.429688 65.621094 63.65625 65.371094 62.796875 65.753906 C 61.839844 66.175781 61.554688 66.996094 61.667969 67.984375 C 61.851562 69.558594 63.421875 70.132812 65.011719 69.058594 Z M 65.011719 69.058594 " fill-opacity="1" fill-rule="nonzero"/><path fill="#000000" d="M 117.078125 69.527344 C 118.007812 69.605469 118.875 69.648438 119.738281 69.648438 C 120.285156 69.652344 120.59375 69.832031 120.589844 70.425781 C 120.589844 71 120.324219 71.234375 119.761719 71.226562 C 118.476562 71.210938 117.191406 71.210938 115.90625 71.21875 C 115.335938 71.222656 115.101562 70.957031 115.105469 70.394531 C 115.117188 68.554688 115.117188 66.714844 115.101562 64.875 C 115.097656 64.304688 115.347656 64.046875 115.910156 64.050781 C 117.195312 64.058594 118.480469 64.054688 119.765625 64.046875 C 120.335938 64.042969 120.574219 64.332031 120.578125 64.882812 C 120.585938 65.492188 120.230469 65.640625 119.703125 65.628906 C 119.042969 65.613281 118.382812 65.621094 117.722656 65.628906 C 117.339844 65.636719 116.910156 65.59375 116.898438 66.164062 C 116.882812 66.78125 117.335938 66.773438 117.765625 66.777344 C 118.285156 66.785156 118.804688 66.789062 119.328125 66.789062 C 119.835938 66.792969 120.082031 67.003906 120.066406 67.550781 C 120.046875 68.0625 119.953125 68.445312 119.335938 68.449219 C 118.78125 68.449219 118.226562 68.457031 117.671875 68.46875 C 116.964844 68.484375 116.722656 68.808594 117.078125 69.527344 Z M 117.078125 69.527344 " fill-opacity="1" fill-rule="nonzero"/><path fill="#000000" d="M 143.390625 70.84375 C 142.527344 71.457031 141.878906 71.375 141.515625 70.515625 C 141.105469 69.558594 140.351562 69.710938 139.597656 69.691406 C 138.867188 69.667969 138.253906 69.730469 137.96875 70.597656 C 137.660156 71.53125 136.894531 71.210938 136.277344 71.132812 C 136.097656 70.867188 136.152344 70.664062 136.234375 70.472656 C 137.023438 68.621094 137.820312 66.777344 138.601562 64.925781 C 138.835938 64.363281 139.140625 64.011719 139.824219 64.023438 C 140.480469 64.035156 140.726562 64.402344 140.9375 64.914062 C 141.746094 66.867188 142.570312 68.816406 143.390625 70.84375 M 140.191406 67.859375 C 140.285156 67.351562 140.054688 66.972656 139.753906 66.542969 C 139.433594 66.996094 139.257812 67.390625 139.300781 67.839844 C 139.554688 68.070312 139.820312 68.03125 140.191406 67.859375 Z M 140.191406 67.859375 " fill-opacity="1" fill-rule="nonzero"/><path fill="#000000" d="M 96.5 65.882812 C 97.195312 67.617188 98.023438 69.21875 98.582031 70.988281 C 97.648438 71.34375 96.910156 71.421875 96.585938 70.363281 C 96.355469 69.617188 95.789062 69.570312 95.183594 69.609375 C 94.488281 69.652344 93.609375 69.398438 93.285156 70.292969 C 92.910156 71.308594 92.238281 71.328125 91.425781 71.128906 C 91.214844 70.738281 91.40625 70.464844 91.523438 70.183594 C 92.238281 68.488281 92.949219 66.792969 93.679688 65.101562 C 93.910156 64.5625 94.109375 64.035156 94.894531 64.027344 C 95.722656 64.015625 95.949219 64.542969 96.1875 65.136719 C 96.277344 65.363281 96.375 65.585938 96.5 65.882812 M 95.191406 66.945312 C 95.113281 66.839844 94.976562 66.636719 94.96875 66.640625 C 94.496094 66.9375 94.414062 67.40625 94.371094 67.902344 C 94.757812 68.070312 95.074219 68.097656 95.375 67.871094 C 95.488281 67.570312 95.300781 67.332031 95.191406 66.945312 Z M 95.191406 66.945312 " fill-opacity="1" fill-rule="nonzero"/><path fill="#000000" d="M 21.078125 70.273438 C 20.296875 69.304688 18.21875 69.375 17.792969 70.382812 C 17.382812 71.355469 16.730469 71.300781 15.96875 71.128906 C 15.734375 70.808594 15.902344 70.558594 16.007812 70.3125 C 16.773438 68.492188 17.558594 66.679688 18.3125 64.851562 C 18.535156 64.316406 18.839844 64.023438 19.472656 64.027344 C 20.105469 64.035156 20.394531 64.332031 20.617188 64.871094 C 21.324219 66.601562 22.078125 68.316406 22.804688 70.039062 C 22.933594 70.347656 23.152344 70.652344 22.972656 71.074219 C 22.164062 71.347656 21.4375 71.394531 21.078125 70.273438 M 19.246094 66.800781 C 19.097656 67.144531 18.859375 67.464844 18.921875 67.882812 C 19.25 68.082031 19.570312 68.078125 19.890625 67.898438 C 19.824219 67.0625 19.824219 67.0625 19.246094 66.800781 Z M 19.246094 66.800781 " fill-opacity="1" fill-rule="nonzero"/><path fill="#000000" d="M 40.851562 69.605469 C 40.054688 69.628906 39.535156 69.84375 39.253906 70.605469 C 38.925781 71.503906 38.199219 71.25 37.445312 71.046875 C 37.679688 69.863281 38.277344 68.878906 38.6875 67.828125 C 39.089844 66.792969 39.546875 65.78125 39.972656 64.757812 C 40.164062 64.296875 40.453125 64.023438 40.992188 64.042969 C 41.464844 64.058594 41.890625 64.089844 42.105469 64.605469 C 42.949219 66.621094 43.796875 68.632812 44.636719 70.652344 C 44.6875 70.765625 44.660156 70.914062 44.667969 71.082031 C 43.769531 71.3125 43.011719 71.414062 42.695312 70.261719 C 42.429688 69.3125 41.585938 69.660156 40.851562 69.605469 M 40.53125 67.625 C 40.71875 68.335938 41.179688 67.9375 41.59375 67.945312 C 41.582031 67.390625 41.386719 67.003906 40.988281 66.601562 C 40.824219 66.957031 40.699219 67.226562 40.53125 67.625 Z M 40.53125 67.625 " fill-opacity="1" fill-rule="nonzero"/><path fill="#000000" d="M 32.78125 67.964844 C 33.480469 69.90625 32.59375 71.191406 30.613281 71.265625 C 29.648438 71.300781 28.753906 71.113281 27.941406 70.574219 C 27.5625 70.324219 27.402344 70.03125 27.71875 69.632812 C 27.984375 69.300781 28.175781 68.785156 28.773438 69.1875 C 29.335938 69.566406 29.953125 69.765625 30.644531 69.671875 C 30.941406 69.628906 31.203125 69.515625 31.230469 69.1875 C 31.253906 68.902344 31.023438 68.753906 30.789062 68.671875 C 30.199219 68.472656 29.601562 68.296875 29.007812 68.101562 C 28.046875 67.789062 27.613281 67.050781 27.648438 66.113281 C 27.679688 65.183594 28.148438 64.453125 29.105469 64.171875 C 30.183594 63.859375 31.230469 63.9375 32.226562 64.484375 C 32.59375 64.683594 32.890625 64.9375 32.59375 65.386719 C 32.339844 65.769531 32.144531 66.332031 31.488281 65.972656 C 31.121094 65.769531 30.75 65.574219 30.316406 65.585938 C 29.980469 65.597656 29.554688 65.535156 29.480469 65.996094 C 29.417969 66.378906 29.777344 66.519531 30.0625 66.625 C 30.550781 66.800781 31.058594 66.925781 31.550781 67.09375 C 32.011719 67.253906 32.441406 67.476562 32.78125 67.964844 Z M 32.78125 67.964844 " fill-opacity="1" fill-rule="nonzero"/><path fill="#000000" d="M 76.214844 66.058594 C 75.695312 65.871094 75.285156 65.578125 74.777344 65.585938 C 74.460938 65.589844 74.113281 65.589844 74.011719 65.972656 C 73.910156 66.367188 74.230469 66.53125 74.523438 66.636719 C 75.074219 66.835938 75.648438 66.972656 76.199219 67.179688 C 77.167969 67.546875 77.589844 68.28125 77.496094 69.300781 C 77.402344 70.269531 76.875 70.929688 75.933594 71.152344 C 74.792969 71.425781 73.652344 71.335938 72.621094 70.722656 C 72.265625 70.511719 71.738281 70.28125 72.164062 69.691406 C 72.480469 69.246094 72.804688 68.84375 73.425781 69.289062 C 73.796875 69.558594 74.226562 69.707031 74.691406 69.6875 C 75.058594 69.675781 75.535156 69.773438 75.644531 69.28125 C 75.757812 68.769531 75.277344 68.679688 74.933594 68.554688 C 74.476562 68.390625 73.996094 68.292969 73.550781 68.113281 C 72.445312 67.667969 72.03125 66.964844 72.171875 65.851562 C 72.289062 64.894531 72.996094 64.191406 74.039062 64.046875 C 74.765625 63.945312 75.496094 63.972656 76.191406 64.246094 C 76.597656 64.410156 77.171875 64.527344 77.15625 65.046875 C 77.144531 65.511719 76.835938 65.953125 76.214844 66.058594 Z M 76.214844 66.058594 " fill-opacity="1" fill-rule="nonzero"/><path fill="#000000" d="M 4.859375 68.363281 C 4.363281 65.09375 7.441406 63.019531 10.300781 64.328125 C 10.746094 64.535156 11.492188 64.714844 11.058594 65.503906 C 10.730469 66.105469 10.324219 66.414062 9.5625 65.9375 C 8.574219 65.320312 7.652344 65.539062 7.066406 66.335938 C 6.46875 67.144531 6.503906 68.28125 7.148438 69.035156 C 7.769531 69.769531 8.761719 69.933594 9.679688 69.308594 C 10.308594 68.878906 10.660156 69.027344 11.046875 69.566406 C 11.539062 70.257812 10.953125 70.511719 10.550781 70.777344 C 8.421875 72.183594 5.726562 71.070312 4.859375 68.363281 Z M 4.859375 68.363281 " fill-opacity="1" fill-rule="nonzero"/><path fill="#000000" d="M 49.210938 65.945312 C 50.515625 63.972656 52.773438 63.367188 54.578125 64.457031 C 54.945312 64.679688 55.480469 64.90625 55.085938 65.480469 C 54.765625 65.949219 54.480469 66.484375 53.691406 65.984375 C 52.644531 65.324219 51.710938 65.5 51.089844 66.300781 C 50.46875 67.101562 50.476562 68.230469 51.109375 69 C 51.738281 69.765625 52.71875 69.929688 53.726562 69.289062 C 54.390625 68.863281 54.75 69.117188 55.09375 69.625 C 55.515625 70.25 54.964844 70.503906 54.585938 70.757812 C 53.339844 71.589844 51.355469 71.480469 50.1875 70.542969 C 48.886719 69.5 48.535156 67.917969 49.210938 65.945312 Z M 49.210938 65.945312 " fill-opacity="1" fill-rule="nonzero"/><path fill="#000000" d="M 83.933594 66.542969 C 84.070312 65.570312 83.464844 65.621094 82.890625 65.636719 C 82.34375 65.648438 81.816406 65.652344 81.835938 64.867188 C 81.847656 64.386719 82.003906 64.0625 82.550781 64.0625 C 84.039062 64.0625 85.527344 64.066406 87.019531 64.058594 C 87.597656 64.054688 87.808594 64.359375 87.828125 64.898438 C 87.847656 65.503906 87.53125 65.726562 86.984375 65.632812 C 85.808594 65.429688 85.570312 66.011719 85.640625 67.042969 C 85.71875 68.144531 85.648438 69.257812 85.691406 70.367188 C 85.71875 71.007812 85.457031 71.222656 84.839844 71.222656 C 84.234375 71.222656 83.96875 71.011719 83.976562 70.371094 C 83.996094 69.125 83.953125 67.878906 83.933594 66.542969 Z M 83.933594 66.542969 " fill-opacity="1" fill-rule="nonzero"/></svg>