<svg version="1.1" id="Layer_1" xmlns="http://www.w3.org/2000/svg" xmlns:xlink="http://www.w3.org/1999/xlink" x="0px" y="0px"
	 width="100%" viewBox="0 0 2052 378" enable-background="new 0 0 2052 378" xml:space="preserve">
<path fill="#4C6971" opacity="1.000000" stroke="none" 
	d="
M2053.000000,115.000000 
	C2053.000000,202.361374 2053.000000,289.722748 2052.829346,377.704773 
	C2052.433838,378.545135 2052.214355,378.769989 2052.000000,379.000000 
	C1413.971924,379.000000 775.943909,379.000000 137.448700,378.721741 
	C136.973206,378.258087 136.964905,378.072662 137.143097,377.558655 
	C141.226349,376.152954 145.148758,375.159973 149.014603,373.981506 
	C157.466446,371.405060 166.196472,369.508575 173.150543,363.405853 
	C176.403381,360.551178 176.735321,357.408234 175.239090,353.640381 
	C173.662140,349.669281 170.045868,348.568573 166.742966,349.164917 
	C157.260544,350.876892 148.067398,349.446564 138.763367,348.053436 
	C111.890190,344.029572 90.466339,330.856232 75.132103,308.697937 
	C67.495575,297.662964 61.792282,285.291656 55.193687,273.536499 
	C44.603916,254.671158 16.985561,253.595612 4.732446,271.509674 
	C3.793753,272.882050 2.258147,273.846130 0.999998,275.000000 
	C1.000000,183.728500 1.000000,92.456993 1.000000,1.000000 
	C114.361298,1.000000 227.722702,1.000000 341.517151,1.353558 
	C336.021881,6.890960 332.350250,12.924616 335.598663,21.007559 
	C337.065277,24.656878 339.237335,28.019033 341.029877,31.541719 
	C346.913513,43.104218 353.521149,54.373817 358.409424,66.344475 
	C362.650330,76.729942 365.146118,87.859612 367.992126,98.770210 
	C369.480194,104.475113 369.980347,110.431847 371.079712,116.245911 
	C371.923950,120.710876 373.421173,125.088127 373.882629,129.580933 
	C374.498016,135.572906 374.182037,141.621155 374.645782,147.677673 
	C375.277710,155.931412 374.160553,164.522781 372.509918,172.710648 
	C366.793121,201.068253 354.700226,226.974960 339.814148,251.502792 
	C326.517181,273.412231 312.209503,294.708069 298.359314,316.282043 
	C294.463257,322.350800 291.471588,328.727386 291.039368,336.120209 
	C290.808624,340.066162 295.513763,346.618011 299.294739,346.976013 
	C308.378235,347.835999 317.111908,346.277496 325.244812,342.271515 
	C340.849182,334.585358 355.145508,324.828186 367.641541,312.755402 
	C383.459259,297.473419 399.725433,282.497681 414.087738,265.908936 
	C430.495422,246.957764 443.215118,225.345947 452.131683,201.674805 
	C460.014252,180.748566 463.636505,159.203873 459.719940,137.136368 
	C456.303314,117.885818 448.614685,99.907173 437.864868,83.581482 
	C429.291565,70.561211 420.020264,57.931667 410.222961,45.803886 
	C398.335510,31.088772 384.488861,18.302944 368.419556,8.075372 
	C365.116608,5.973159 362.131561,3.371466 359.000000,1.000000 
	C923.666687,1.000000 1488.333374,1.000000 2053.000000,1.000000 
	C2053.000000,32.098495 2053.000000,63.091293 2052.714355,94.373108 
	C2051.632568,93.828209 2050.675537,93.097160 2050.065186,92.144203 
	C2044.788330,83.906624 2036.972900,81.960518 2027.936279,83.257927 
	C2016.321777,84.925484 2007.771851,100.327919 2012.683838,110.992348 
	C2020.453003,127.860474 2040.056885,126.673782 2048.110596,116.957542 
	C2049.118652,115.741508 2050.710693,115.009842 2052.190430,114.213898 
	C2052.562256,114.586479 2052.779297,114.795120 2053.000000,115.000000 
M1041.000000,127.500000 
	C1041.166992,161.944427 1041.126709,196.391571 1041.580688,230.832214 
	C1041.842529,250.691666 1052.081665,265.008118 1068.532959,275.211639 
	C1077.029419,280.481323 1086.733032,281.342560 1096.408569,281.975952 
	C1112.363770,283.020355 1127.991943,280.408478 1143.525269,277.304688 
	C1151.816528,275.647919 1159.887085,274.108215 1167.704834,278.931885 
	C1168.912231,279.676910 1170.580200,279.701294 1172.047974,279.995148 
	C1187.444458,283.077484 1202.860229,282.661896 1218.258301,280.078430 
	C1222.338623,279.393860 1225.070312,279.674896 1225.028564,284.941437 
	C1224.828369,310.269501 1224.885010,335.599762 1224.619751,360.926849 
	C1224.583252,364.417450 1225.719238,365.967010 1228.961182,366.124817 
	C1235.938477,366.464386 1242.919434,366.924194 1249.900635,366.958313 
	C1268.150757,367.047485 1277.945068,357.221191 1277.990112,338.965820 
	C1278.029541,322.966583 1277.981079,306.967133 1278.012817,290.967865 
	C1278.027588,283.546631 1278.366699,283.703766 1285.579590,283.749115 
	C1297.053101,283.821289 1308.667114,284.266510 1319.981323,282.754700 
	C1356.643188,277.855835 1383.008667,258.798553 1394.876099,223.084549 
	C1404.396362,194.434036 1403.750000,165.177551 1393.868896,136.638519 
	C1384.420166,109.348503 1365.595093,92.245171 1336.220703,88.618973 
	C1313.371704,85.798332 1293.641357,91.843750 1278.831543,110.501755 
	C1277.766724,111.843292 1276.337402,112.895523 1274.775879,114.366409 
	C1273.890991,112.943214 1273.158813,112.196243 1272.920532,111.315681 
	C1270.662842,102.969276 1264.597046,98.685547 1256.644043,97.897232 
	C1249.273682,97.166664 1241.698853,97.470375 1234.308350,98.232727 
	C1225.321533,99.159760 1225.007324,99.960747 1225.005005,108.889412 
	C1224.995239,148.054474 1225.001221,187.219543 1224.996826,226.384613 
	C1224.996582,228.384109 1225.514404,230.625320 1224.785767,232.322311 
	C1223.861816,234.473953 1222.168823,237.480392 1220.350708,237.845764 
	C1214.369385,239.047836 1208.146118,239.932678 1202.081909,239.627228 
	C1193.026245,239.171127 1188.101440,234.722382 1186.104126,225.770004 
	C1184.844360,220.124252 1184.136719,214.241577 1184.091675,208.458084 
	C1183.885498,181.960770 1184.002075,155.460953 1183.999512,128.962036 
	C1183.996582,98.963280 1184.084229,68.964096 1183.947144,38.965942 
	C1183.876831,23.576683 1173.489136,13.222959 1158.163086,13.067744 
	C1152.683838,13.012253 1147.180054,13.359820 1141.719849,13.869784 
	C1132.005249,14.777103 1132.002930,14.887523 1132.002319,24.786819 
	C1131.998413,89.450844 1131.999390,154.114868 1132.005127,218.778885 
	C1132.005249,220.778122 1131.836426,222.814911 1132.147095,224.770538 
	C1134.240479,237.950714 1133.870728,237.600357 1118.903809,239.878494 
	C1118.412109,239.953323 1117.906372,239.939362 1117.406738,239.955948 
	C1102.407227,240.454132 1095.665039,235.066345 1094.083374,220.160248 
	C1093.120239,211.082855 1093.059937,201.882339 1093.043335,192.736328 
	C1092.950684,141.738586 1093.037964,90.740517 1092.968384,39.742702 
	C1092.946045,23.426020 1082.687256,13.092690 1066.477295,13.069838 
	C1059.998779,13.060703 1053.522461,13.822823 1047.038940,14.068517 
	C1042.425171,14.243357 1040.869751,16.306000 1040.893555,21.004818 
	C1041.071777,56.169155 1040.996094,91.334778 1041.000000,127.500000 
M283.646637,61.898270 
	C279.854736,60.317120 276.184082,58.282505 272.250610,57.230930 
	C251.933701,51.799419 231.396408,48.076035 210.233093,51.005539 
	C198.687851,52.603676 186.897568,53.321312 175.680191,56.223373 
	C147.310791,63.562847 120.981941,75.067780 100.826881,97.578621 
	C97.753983,101.010696 93.254715,103.334412 90.739540,107.063911 
	C84.426773,116.424477 77.970627,125.883621 73.295525,136.092514 
	C69.449135,144.491760 67.506561,153.917999 65.801651,163.090088 
	C64.597488,169.568192 65.255180,176.384720 64.969124,183.045349 
	C64.871346,185.321869 63.981770,187.637039 64.243202,189.840912 
	C64.753487,194.142502 65.934479,198.359650 66.625687,202.645966 
	C67.400063,207.448120 67.550812,212.378906 68.651924,217.095200 
	C72.411491,233.197968 78.455986,248.456787 86.971062,262.641052 
	C90.934044,269.242493 94.924255,275.978760 99.927353,281.767914 
	C106.810417,289.732422 114.822746,296.708649 122.057762,304.384918 
	C128.687332,311.418793 137.292938,315.039825 146.173431,316.676025 
	C155.419754,318.379578 165.114807,318.023804 174.607300,317.929504 
	C189.923874,317.777374 204.334366,312.944427 218.013458,306.796356 
	C244.544098,294.872070 266.830231,277.070251 286.278473,255.409760 
	C301.612152,238.331909 314.157227,219.572144 324.020782,198.928360 
	C334.639465,176.704132 339.677765,153.455521 335.964935,128.867294 
	C331.175446,97.149025 313.474792,75.169563 283.646637,61.898270 
M1418.000000,69.500000 
	C1418.000000,117.486290 1417.986450,165.472595 1418.017578,213.458847 
	C1418.021484,219.410751 1418.123169,225.369537 1418.422119,231.312943 
	C1419.267090,248.115341 1427.313843,261.262329 1440.557129,270.837189 
	C1454.848145,281.169495 1471.770142,282.099060 1488.499023,280.378418 
	C1505.035034,278.677582 1521.396240,275.300079 1537.853394,272.783478 
	C1539.911865,272.468689 1542.443115,272.233612 1544.153076,273.121460 
	C1560.548218,281.634186 1578.449463,283.100586 1596.198730,282.691620 
	C1613.763062,282.286896 1631.344238,279.892181 1648.778687,277.396667 
	C1663.963989,275.223053 1671.800781,266.116821 1671.826660,250.737122 
	C1671.883545,216.933273 1671.966431,183.104477 1670.768188,149.330933 
	C1669.683838,118.761993 1651.227661,97.773293 1621.738892,90.091339 
	C1606.115234,86.021271 1590.253784,86.096718 1574.571045,87.556976 
	C1561.229492,88.799225 1548.116211,92.530113 1534.914673,95.222610 
	C1530.061157,96.212494 1528.414062,99.322762 1529.330444,104.079262 
	C1530.149170,108.328804 1530.619751,112.653519 1531.601318,116.861740 
	C1533.252319,123.940063 1537.677246,128.981705 1544.721924,130.521713 
	C1549.091064,131.476837 1553.971069,131.313324 1558.410645,130.499908 
	C1571.459717,128.109085 1584.458618,127.050949 1597.647827,129.112320 
	C1611.062866,131.209015 1618.111206,137.759155 1620.389282,150.595734 
	C1621.679443,157.866241 1620.219116,159.138290 1612.953613,158.550095 
	C1591.088989,156.780060 1569.559082,158.451172 1549.326660,167.593277 
	C1534.837158,174.140366 1523.164185,184.457336 1518.945801,200.172470 
	C1516.413452,209.606583 1516.715210,219.885910 1516.455688,229.804016 
	C1516.352051,233.763550 1515.555298,235.743469 1511.568359,236.219681 
	C1505.453247,236.950012 1499.382080,238.216293 1493.250854,238.607407 
	C1480.517456,239.419693 1473.024902,233.237701 1471.195923,220.610077 
	C1470.482544,215.684097 1470.056885,210.670059 1470.049683,205.695312 
	C1469.970215,151.543793 1470.000732,97.392097 1469.997803,43.240452 
	C1469.997681,40.907963 1470.041260,38.571854 1469.932495,36.243591 
	C1469.341064,23.582754 1460.774658,13.335769 1448.204712,12.104069 
	C1440.033936,11.303428 1431.665283,12.699956 1423.381348,12.805936 
	C1418.916382,12.863060 1417.859009,14.867921 1417.909058,19.014713 
	C1418.107422,35.507786 1417.996338,52.004581 1418.000000,69.500000 
M794.000000,206.500000 
	C793.885376,229.821945 793.822937,253.144394 793.592224,276.465179 
	C793.562317,279.491791 794.749329,280.767883 797.505371,281.067993 
	C803.130066,281.680573 808.742432,282.470551 814.382324,282.869446 
	C834.391907,284.284576 845.975281,273.462219 845.991760,253.409210 
	C846.018311,221.085114 846.478394,188.749985 845.738586,156.442810 
	C845.479248,145.116547 842.826538,133.712418 840.134338,122.618660 
	C838.163025,114.495468 833.347778,107.483879 826.844788,101.880722 
	C814.591614,91.323105 799.991028,89.397156 784.422058,88.770927 
	C762.312073,87.881615 746.518799,97.883972 733.713440,114.495392 
	C730.100586,119.182060 729.599182,119.279610 726.685913,114.003304 
	C721.119751,103.922005 712.822876,97.220901 702.181091,93.025154 
	C691.814697,88.937973 681.042603,88.976372 670.187256,88.958420 
	C657.456360,88.937363 646.276428,93.226974 636.572266,101.103539 
	C631.884460,104.908485 628.030334,109.740654 623.012207,114.919495 
	C622.094604,112.205978 621.439270,110.611084 621.020874,108.956268 
	C620.245544,105.889915 619.528259,102.803970 618.932861,99.698196 
	C618.002930,94.847450 615.454956,91.811172 610.244873,91.753807 
	C600.442749,91.645859 590.617371,91.182167 580.844788,91.692215 
	C573.929810,92.053116 573.999634,92.659927 573.986389,99.777260 
	C573.876831,158.755661 573.726318,217.734055 573.783813,276.712250 
	C573.785217,278.151306 575.909241,280.670441 577.279907,280.846832 
	C585.020874,281.843109 592.836121,282.776398 600.622253,282.746307 
	C606.991272,282.721710 612.943970,280.644012 617.786560,275.816345 
	C623.469604,270.150879 626.003784,263.471466 625.998291,255.599426 
	C625.980530,230.273331 625.574951,204.936249 626.230408,179.626999 
	C626.463196,170.637161 628.162598,161.299179 631.224548,152.857162 
	C636.103760,139.404816 649.447083,132.682129 663.524170,135.317123 
	C670.310791,136.587479 676.425964,139.789856 678.338562,147.127792 
	C680.578430,155.721695 683.563416,164.474930 683.704651,173.199875 
	C684.257568,207.343750 683.871826,241.504074 683.653992,275.657135 
	C683.633057,278.932129 684.244446,280.815247 687.689392,281.102142 
	C694.981506,281.709473 702.270813,282.795380 709.563904,282.817291 
	C716.301086,282.837524 722.603333,280.927338 727.739746,275.856293 
	C733.595581,270.074951 736.026245,263.208984 736.011902,255.160492 
	C735.965393,229.167999 735.690430,203.169373 736.192139,177.186432 
	C736.340515,169.499542 737.901123,161.568863 740.333618,154.255157 
	C745.004517,140.211121 759.420837,132.349197 773.843323,135.359909 
	C780.396240,136.727859 785.577637,140.111923 788.477295,146.892517 
	C792.558838,156.436905 793.255066,166.493317 793.868347,176.516037 
	C794.457397,186.143997 793.998413,195.836090 794.000000,206.500000 
M1018.992554,252.335831 
	C1018.994995,222.347809 1019.056213,192.359558 1018.946533,162.371948 
	C1018.926453,156.897919 1018.534424,151.379974 1017.759949,145.961533 
	C1013.582642,116.735649 996.982971,98.354149 968.287048,91.348938 
	C942.703308,85.103455 917.344482,87.820465 892.158936,93.977066 
	C875.593994,98.026352 873.967285,100.979744 878.762024,117.592667 
	C878.854370,117.912796 878.947388,118.232864 879.047852,118.550507 
	C882.290039,128.801971 890.081543,133.946594 900.774292,132.784821 
	C903.251770,132.515656 905.696167,131.935287 908.152710,131.481552 
	C921.524475,129.011658 934.933899,128.364258 948.313782,131.208817 
	C959.842773,133.659897 966.730225,141.301880 967.821899,152.359909 
	C968.416138,158.379471 967.137634,159.915863 961.131226,159.969177 
	C953.002686,160.041351 944.868896,159.813141 936.744568,160.010040 
	C920.861694,160.394989 905.670654,163.708481 891.744141,171.657288 
	C876.780029,180.198257 866.544678,192.398819 864.183105,209.876099 
	C863.195068,217.188309 863.269470,224.701385 863.471863,232.106461 
	C864.101379,255.132385 883.877869,274.846893 904.777527,279.737396 
	C935.895203,287.018921 966.997742,284.728485 997.948425,278.428864 
	C1011.746643,275.620453 1018.316589,267.424713 1018.992554,252.335831 
M1912.463379,128.000397 
	C1917.433105,128.418671 1922.459595,128.497711 1927.361572,129.320221 
	C1940.859619,131.585068 1949.166626,140.761246 1948.965942,152.728882 
	C1948.875610,158.113815 1947.678833,159.048416 1942.270142,158.562408 
	C1923.844482,156.906708 1905.646484,158.176056 1887.911743,163.644897 
	C1876.442139,167.181732 1866.325806,173.101929 1858.016113,181.953445 
	C1844.347656,196.512955 1843.400024,214.431259 1844.824585,232.783157 
	C1845.733276,244.488831 1851.275513,253.975388 1859.537231,262.524933 
	C1867.656982,270.927307 1877.108032,276.222809 1888.129883,278.785706 
	C1918.449829,285.836090 1948.709595,283.236755 1978.813477,277.199768 
	C1993.454712,274.263641 1999.978394,265.791016 1999.990723,250.790237 
	C2000.015991,219.974640 2000.106079,189.158325 1999.913330,158.343933 
	C1999.872925,151.894958 1999.194214,145.365189 1998.005493,139.023331 
	C1993.591187,115.469101 1979.474609,100.278473 1957.124146,92.150879 
	C1940.541138,86.120583 1923.293457,85.852272 1906.270386,87.373482 
	C1891.622192,88.682480 1877.215820,92.716080 1862.709229,95.579155 
	C1859.114136,96.288704 1857.732788,98.794197 1858.085938,102.187706 
	C1858.550049,106.647369 1858.965820,111.152458 1859.967651,115.508018 
	C1862.742432,127.573303 1872.611328,133.349457 1884.773071,131.162933 
	C1893.582886,129.579056 1902.576294,129.017548 1912.463379,128.000397 
M1818.229858,132.737778 
	C1823.062500,124.189499 1828.517334,115.923416 1832.557373,107.015602 
	C1836.808960,97.641167 1832.477417,91.143219 1822.504272,91.107193 
	C1780.345215,90.954880 1738.185425,91.051285 1696.025879,90.999329 
	C1691.832764,90.994164 1690.095215,92.757690 1689.985474,96.994843 
	C1689.479126,116.577034 1703.046509,130.802856 1722.699951,130.978058 
	C1732.530884,131.065704 1742.364380,130.922745 1752.194092,131.059326 
	C1754.405151,131.090042 1756.605957,131.852051 1758.811523,132.277374 
	C1758.115112,134.391068 1757.771851,136.712158 1756.670288,138.587891 
	C1734.061890,177.088684 1711.311646,215.506378 1688.764526,254.042892 
	C1686.193237,258.437714 1684.126099,263.296112 1682.796631,268.202728 
	C1681.391357,273.389404 1684.116455,276.922089 1689.502441,277.830322 
	C1693.587769,278.519287 1697.770020,278.943878 1701.910034,278.951019 
	C1746.735840,279.028137 1791.561890,278.999908 1836.387817,278.996796 
	C1837.887329,278.996704 1839.386719,278.951111 1840.886230,278.938232 
	C1844.097900,278.910675 1845.950073,277.404541 1845.913452,274.089813 
	C1845.731201,257.594147 1839.832520,237.146194 1813.623047,237.910248 
	C1796.973389,238.395615 1780.297729,238.025833 1763.633911,237.979691 
	C1756.349854,237.959518 1755.785767,236.906799 1759.516968,230.682068 
	C1778.962524,198.241684 1798.416016,165.806000 1818.229858,132.737778 
z"/>
<path fill="#E80A4D" opacity="1.000000" stroke="none" 
	d="
M358.532410,1.000000 
	C362.131561,3.371466 365.116608,5.973159 368.419556,8.075372 
	C384.488861,18.302944 398.335510,31.088772 410.222961,45.803886 
	C420.020264,57.931667 429.291565,70.561211 437.864868,83.581482 
	C448.614685,99.907173 456.303314,117.885818 459.719940,137.136368 
	C463.636505,159.203873 460.014252,180.748566 452.131683,201.674805 
	C443.215118,225.345947 430.495422,246.957764 414.087738,265.908936 
	C399.725433,282.497681 383.459259,297.473419 367.641541,312.755402 
	C355.145508,324.828186 340.849182,334.585358 325.244812,342.271515 
	C317.111908,346.277496 308.378235,347.835999 299.294739,346.976013 
	C295.513763,346.618011 290.808624,340.066162 291.039368,336.120209 
	C291.471588,328.727386 294.463257,322.350800 298.359314,316.282043 
	C312.209503,294.708069 326.517181,273.412231 339.814148,251.502792 
	C354.700226,226.974960 366.793121,201.068253 372.509918,172.710648 
	C374.160553,164.522781 375.277710,155.931412 374.645782,147.677673 
	C374.182037,141.621155 374.498016,135.572906 373.882629,129.580933 
	C373.421173,125.088127 371.923950,120.710876 371.079712,116.245911 
	C369.980347,110.431847 369.480194,104.475113 367.992126,98.770210 
	C365.146118,87.859612 362.650330,76.729942 358.409424,66.344475 
	C353.521149,54.373817 346.913513,43.104218 341.029877,31.541719 
	C339.237335,28.019033 337.065277,24.656878 335.598663,21.007559 
	C332.350250,12.924616 336.021881,6.890960 341.975098,1.353558 
	C347.354919,1.000000 352.709869,1.000000 358.532410,1.000000 
z"/>
<path fill="#E80A4D" opacity="1.000000" stroke="none" 
	d="
M0.999998,275.468628 
	C2.258147,273.846130 3.793753,272.882050 4.732446,271.509674 
	C16.985561,253.595612 44.603916,254.671158 55.193687,273.536499 
	C61.792282,285.291656 67.495575,297.662964 75.132103,308.697937 
	C90.466339,330.856232 111.890190,344.029572 138.763367,348.053436 
	C148.067398,349.446564 157.260544,350.876892 166.742966,349.164917 
	C170.045868,348.568573 173.662140,349.669281 175.239090,353.640381 
	C176.735321,357.408234 176.403381,360.551178 173.150543,363.405853 
	C166.196472,369.508575 157.466446,371.405060 149.014603,373.981506 
	C145.148758,375.159973 141.226349,376.152954 136.905334,377.668457 
	C136.320709,378.404541 136.160355,378.702271 136.000000,379.000000 
	C118.645775,379.000000 101.291542,379.000000 83.460403,378.600464 
	C82.158768,377.459717 81.456467,376.398987 80.489685,376.028534 
	C73.626366,373.398651 66.469208,371.414551 59.857578,368.273499 
	C45.133884,361.278595 32.362286,351.367584 22.366724,338.555634 
	C16.185587,330.632904 11.463960,321.533112 6.453840,312.752472 
	C4.177600,308.763153 2.790460,304.266510 1.000000,300.000000 
	C1.000000,291.979095 1.000000,283.958191 0.999998,275.468628 
z"/>
<path fill="#4C6971" opacity="1.000000" stroke="none" 
	d="
M1.000000,300.468658 
	C2.790460,304.266510 4.177600,308.763153 6.453840,312.752472 
	C11.463960,321.533112 16.185587,330.632904 22.366724,338.555634 
	C32.362286,351.367584 45.133884,361.278595 59.857578,368.273499 
	C66.469208,371.414551 73.626366,373.398651 80.489685,376.028534 
	C81.456467,376.398987 82.158768,377.459717 82.991745,378.600464 
	C55.741138,379.000000 28.482281,379.000000 1.000000,379.000000 
	C1.000000,352.979523 1.000000,326.958435 1.000000,300.468658 
z"/>
<path fill="#54565A" opacity="1.000000" stroke="none" 
	d="
M2052.032227,114.053741 
	C2050.710693,115.009842 2049.118652,115.741508 2048.110596,116.957542 
	C2040.056885,126.673782 2020.453003,127.860474 2012.683838,110.992348 
	C2007.771851,100.327919 2016.321777,84.925484 2027.936279,83.257927 
	C2036.972900,81.960518 2044.788330,83.906624 2050.065186,92.144203 
	C2050.675537,93.097160 2051.632568,93.828209 2052.714355,94.831062 
	C2053.000000,101.021156 2053.000000,107.042305 2052.758057,113.544403 
	C2052.516113,114.025352 2052.032227,114.053749 2052.032227,114.053741 
M2028.512573,119.236649 
	C2037.300171,120.858841 2044.560913,117.028496 2047.868530,109.025764 
	C2050.753906,102.045029 2048.306152,94.249168 2041.788818,89.662170 
	C2035.206543,85.029602 2027.008423,85.753281 2020.798096,91.579468 
	C2013.109131,98.793015 2014.392212,114.481209 2028.512573,119.236649 
z"/>
<path fill="#4C6971" opacity="1.000000" stroke="none" 
	d="
M2052.190430,114.213913 
	C2052.032227,114.053749 2052.516113,114.025352 2052.758057,114.012680 
	C2053.000000,114.000000 2053.000000,114.500000 2053.000000,114.750000 
	C2052.779297,114.795120 2052.562256,114.586479 2052.190430,114.213913 
z"/>
<path fill="#4C6971" opacity="1.000000" stroke="none" 
	d="
M136.250000,379.000000 
	C136.160355,378.702271 136.320709,378.404541 136.718826,377.997009 
	C136.964905,378.072662 136.973206,378.258087 136.990753,378.721741 
	C137.000000,379.000000 136.500000,379.000000 136.250000,379.000000 
z"/>
<path fill="#4C6971" opacity="1.000000" stroke="none" 
	d="
M2052.500000,379.000000 
	C2052.214355,378.769989 2052.433838,378.545135 2052.829346,378.162720 
	C2053.000000,378.333344 2053.000000,378.666656 2052.500000,379.000000 
z"/>
<path fill="#54565A" opacity="1.000000" stroke="none" 
	d="
M1041.000000,127.000000 
	C1040.996094,91.334778 1041.071777,56.169155 1040.893555,21.004818 
	C1040.869751,16.306000 1042.425171,14.243357 1047.038940,14.068517 
	C1053.522461,13.822823 1059.998779,13.060703 1066.477295,13.069838 
	C1082.687256,13.092690 1092.946045,23.426020 1092.968384,39.742702 
	C1093.037964,90.740517 1092.950684,141.738586 1093.043335,192.736328 
	C1093.059937,201.882339 1093.120239,211.082855 1094.083374,220.160248 
	C1095.665039,235.066345 1102.407227,240.454132 1117.406738,239.955948 
	C1117.906372,239.939362 1118.412109,239.953323 1118.903809,239.878494 
	C1133.870728,237.600357 1134.240479,237.950714 1132.147095,224.770538 
	C1131.836426,222.814911 1132.005249,220.778122 1132.005127,218.778885 
	C1131.999390,154.114868 1131.998413,89.450844 1132.002319,24.786819 
	C1132.002930,14.887523 1132.005249,14.777103 1141.719849,13.869784 
	C1147.180054,13.359820 1152.683838,13.012253 1158.163086,13.067744 
	C1173.489136,13.222959 1183.876831,23.576683 1183.947144,38.965942 
	C1184.084229,68.964096 1183.996582,98.963280 1183.999512,128.962036 
	C1184.002075,155.460953 1183.885498,181.960770 1184.091675,208.458084 
	C1184.136719,214.241577 1184.844360,220.124252 1186.104126,225.770004 
	C1188.101440,234.722382 1193.026245,239.171127 1202.081909,239.627228 
	C1208.146118,239.932678 1214.369385,239.047836 1220.350708,237.845764 
	C1222.168823,237.480392 1223.861816,234.473953 1224.785767,232.322311 
	C1225.514404,230.625320 1224.996582,228.384109 1224.996826,226.384613 
	C1225.001221,187.219543 1224.995239,148.054474 1225.005005,108.889412 
	C1225.007324,99.960747 1225.321533,99.159760 1234.308350,98.232727 
	C1241.698853,97.470375 1249.273682,97.166664 1256.644043,97.897232 
	C1264.597046,98.685547 1270.662842,102.969276 1272.920532,111.315681 
	C1273.158813,112.196243 1273.890991,112.943214 1274.775879,114.366409 
	C1276.337402,112.895523 1277.766724,111.843292 1278.831543,110.501755 
	C1293.641357,91.843750 1313.371704,85.798332 1336.220703,88.618973 
	C1365.595093,92.245171 1384.420166,109.348503 1393.868896,136.638519 
	C1403.750000,165.177551 1404.396362,194.434036 1394.876099,223.084549 
	C1383.008667,258.798553 1356.643188,277.855835 1319.981323,282.754700 
	C1308.667114,284.266510 1297.053101,283.821289 1285.579590,283.749115 
	C1278.366699,283.703766 1278.027588,283.546631 1278.012817,290.967865 
	C1277.981079,306.967133 1278.029541,322.966583 1277.990112,338.965820 
	C1277.945068,357.221191 1268.150757,367.047485 1249.900635,366.958313 
	C1242.919434,366.924194 1235.938477,366.464386 1228.961182,366.124817 
	C1225.719238,365.967010 1224.583252,364.417450 1224.619751,360.926849 
	C1224.885010,335.599762 1224.828369,310.269501 1225.028564,284.941437 
	C1225.070312,279.674896 1222.338623,279.393860 1218.258301,280.078430 
	C1202.860229,282.661896 1187.444458,283.077484 1172.047974,279.995148 
	C1170.580200,279.701294 1168.912231,279.676910 1167.704834,278.931885 
	C1159.887085,274.108215 1151.816528,275.647919 1143.525269,277.304688 
	C1127.991943,280.408478 1112.363770,283.020355 1096.408569,281.975952 
	C1086.733032,281.342560 1077.029419,280.481323 1068.532959,275.211639 
	C1052.081665,265.008118 1041.842529,250.691666 1041.580688,230.832214 
	C1041.126709,196.391571 1041.166992,161.944427 1041.000000,127.000000 
M1314.366211,240.015656 
	C1327.534912,236.194565 1336.008057,227.518509 1340.678101,214.790359 
	C1346.111938,199.980865 1346.069580,184.638489 1344.127197,169.414429 
	C1343.183228,162.015320 1340.705078,154.367279 1337.081543,147.855789 
	C1331.210815,137.306137 1321.251953,132.447342 1309.032349,133.096313 
	C1297.272583,133.720871 1288.032715,138.976669 1283.291138,149.890976 
	C1280.622559,156.033997 1278.473267,162.913483 1278.277588,169.525955 
	C1277.647217,190.824661 1278.080200,212.153671 1277.986450,233.470459 
	C1277.967773,237.695587 1279.705688,239.941940 1283.871460,240.666245 
	C1293.815063,242.395081 1303.714966,242.879181 1314.366211,240.015656 
z"/>
<path fill="#E80A4D" opacity="1.000000" stroke="none" 
	d="
M284.016724,62.001492 
	C313.474792,75.169563 331.175446,97.149025 335.964935,128.867294 
	C339.677765,153.455521 334.639465,176.704132 324.020782,198.928360 
	C314.157227,219.572144 301.612152,238.331909 286.278473,255.409760 
	C266.830231,277.070251 244.544098,294.872070 218.013458,306.796356 
	C204.334366,312.944427 189.923874,317.777374 174.607300,317.929504 
	C165.114807,318.023804 155.419754,318.379578 146.173431,316.676025 
	C137.292938,315.039825 128.687332,311.418793 122.057762,304.384918 
	C114.822746,296.708649 106.810417,289.732422 99.927353,281.767914 
	C94.924255,275.978760 90.934044,269.242493 86.971062,262.641052 
	C78.455986,248.456787 72.411491,233.197968 68.651924,217.095200 
	C67.550812,212.378906 67.400063,207.448120 66.625687,202.645966 
	C65.934479,198.359650 64.753487,194.142502 64.243202,189.840912 
	C63.981770,187.637039 64.871346,185.321869 64.969124,183.045349 
	C65.255180,176.384720 64.597488,169.568192 65.801651,163.090088 
	C67.506561,153.917999 69.449135,144.491760 73.295525,136.092514 
	C77.970627,125.883621 84.426773,116.424477 90.739540,107.063911 
	C93.254715,103.334412 97.753983,101.010696 100.826881,97.578621 
	C120.981941,75.067780 147.310791,63.562847 175.680191,56.223373 
	C186.897568,53.321312 198.687851,52.603676 210.233093,51.005539 
	C231.396408,48.076035 251.933701,51.799419 272.250610,57.230930 
	C276.184082,58.282505 279.854736,60.317120 284.016724,62.001492 
M203.395203,247.009537 
	C221.445480,239.798050 236.538849,228.501709 248.237808,213.075882 
	C259.707642,197.952225 269.068481,181.855179 268.061829,161.705200 
	C267.258575,145.626770 259.927307,133.604691 245.983627,126.129448 
	C232.283340,118.784683 217.517059,116.809128 201.940689,118.853233 
	C181.085739,121.590057 162.940918,129.333511 148.570999,144.963943 
	C139.441788,154.893967 134.584076,166.692001 134.006897,180.194275 
	C133.430023,193.688721 136.832748,206.369263 142.819397,218.261078 
	C147.735489,228.026337 153.876999,237.194153 162.756210,243.833206 
	C175.195328,253.133987 188.808044,252.232391 203.395203,247.009537 
z"/>
<path fill="#54565A" opacity="1.000000" stroke="none" 
	d="
M1418.000000,69.000000 
	C1417.996338,52.004581 1418.107422,35.507786 1417.909058,19.014713 
	C1417.859009,14.867921 1418.916382,12.863060 1423.381348,12.805936 
	C1431.665283,12.699956 1440.033936,11.303428 1448.204712,12.104069 
	C1460.774658,13.335769 1469.341064,23.582754 1469.932495,36.243591 
	C1470.041260,38.571854 1469.997681,40.907963 1469.997803,43.240452 
	C1470.000732,97.392097 1469.970215,151.543793 1470.049683,205.695312 
	C1470.056885,210.670059 1470.482544,215.684097 1471.195923,220.610077 
	C1473.024902,233.237701 1480.517456,239.419693 1493.250854,238.607407 
	C1499.382080,238.216293 1505.453247,236.950012 1511.568359,236.219681 
	C1515.555298,235.743469 1516.352051,233.763550 1516.455688,229.804016 
	C1516.715210,219.885910 1516.413452,209.606583 1518.945801,200.172470 
	C1523.164185,184.457336 1534.837158,174.140366 1549.326660,167.593277 
	C1569.559082,158.451172 1591.088989,156.780060 1612.953613,158.550095 
	C1620.219116,159.138290 1621.679443,157.866241 1620.389282,150.595734 
	C1618.111206,137.759155 1611.062866,131.209015 1597.647827,129.112320 
	C1584.458618,127.050949 1571.459717,128.109085 1558.410645,130.499908 
	C1553.971069,131.313324 1549.091064,131.476837 1544.721924,130.521713 
	C1537.677246,128.981705 1533.252319,123.940063 1531.601318,116.861740 
	C1530.619751,112.653519 1530.149170,108.328804 1529.330444,104.079262 
	C1528.414062,99.322762 1530.061157,96.212494 1534.914673,95.222610 
	C1548.116211,92.530113 1561.229492,88.799225 1574.571045,87.556976 
	C1590.253784,86.096718 1606.115234,86.021271 1621.738892,90.091339 
	C1651.227661,97.773293 1669.683838,118.761993 1670.768188,149.330933 
	C1671.966431,183.104477 1671.883545,216.933273 1671.826660,250.737122 
	C1671.800781,266.116821 1663.963989,275.223053 1648.778687,277.396667 
	C1631.344238,279.892181 1613.763062,282.286896 1596.198730,282.691620 
	C1578.449463,283.100586 1560.548218,281.634186 1544.153076,273.121460 
	C1542.443115,272.233612 1539.911865,272.468689 1537.853394,272.783478 
	C1521.396240,275.300079 1505.035034,278.677582 1488.499023,280.378418 
	C1471.770142,282.099060 1454.848145,281.169495 1440.557129,270.837189 
	C1427.313843,261.262329 1419.267090,248.115341 1418.422119,231.312943 
	C1418.123169,225.369537 1418.021484,219.410751 1418.017578,213.458847 
	C1417.986450,165.472595 1418.000000,117.486290 1418.000000,69.000000 
M1568.579590,204.199814 
	C1559.595459,221.261002 1566.970093,237.721222 1585.999146,240.614166 
	C1595.688843,242.087265 1605.825684,240.756943 1615.753052,240.453369 
	C1619.266724,240.345932 1621.007935,238.143280 1620.986206,234.467804 
	C1620.915161,222.469467 1620.924561,210.470291 1620.979370,198.471786 
	C1620.995850,194.857056 1619.320068,192.951294 1615.809448,192.320862 
	C1603.572876,190.123367 1591.459839,190.538956 1579.973389,195.419968 
	C1575.890259,197.155029 1572.620850,200.805176 1568.579590,204.199814 
z"/>
<path fill="#54565A" opacity="1.000000" stroke="none" 
	d="
M794.000000,206.000000 
	C793.998413,195.836090 794.457397,186.143997 793.868347,176.516037 
	C793.255066,166.493317 792.558838,156.436905 788.477295,146.892517 
	C785.577637,140.111923 780.396240,136.727859 773.843323,135.359909 
	C759.420837,132.349197 745.004517,140.211121 740.333618,154.255157 
	C737.901123,161.568863 736.340515,169.499542 736.192139,177.186432 
	C735.690430,203.169373 735.965393,229.167999 736.011902,255.160492 
	C736.026245,263.208984 733.595581,270.074951 727.739746,275.856293 
	C722.603333,280.927338 716.301086,282.837524 709.563904,282.817291 
	C702.270813,282.795380 694.981506,281.709473 687.689392,281.102142 
	C684.244446,280.815247 683.633057,278.932129 683.653992,275.657135 
	C683.871826,241.504074 684.257568,207.343750 683.704651,173.199875 
	C683.563416,164.474930 680.578430,155.721695 678.338562,147.127792 
	C676.425964,139.789856 670.310791,136.587479 663.524170,135.317123 
	C649.447083,132.682129 636.103760,139.404816 631.224548,152.857162 
	C628.162598,161.299179 626.463196,170.637161 626.230408,179.626999 
	C625.574951,204.936249 625.980530,230.273331 625.998291,255.599426 
	C626.003784,263.471466 623.469604,270.150879 617.786560,275.816345 
	C612.943970,280.644012 606.991272,282.721710 600.622253,282.746307 
	C592.836121,282.776398 585.020874,281.843109 577.279907,280.846832 
	C575.909241,280.670441 573.785217,278.151306 573.783813,276.712250 
	C573.726318,217.734055 573.876831,158.755661 573.986389,99.777260 
	C573.999634,92.659927 573.929810,92.053116 580.844788,91.692215 
	C590.617371,91.182167 600.442749,91.645859 610.244873,91.753807 
	C615.454956,91.811172 618.002930,94.847450 618.932861,99.698196 
	C619.528259,102.803970 620.245544,105.889915 621.020874,108.956268 
	C621.439270,110.611084 622.094604,112.205978 623.012207,114.919495 
	C628.030334,109.740654 631.884460,104.908485 636.572266,101.103539 
	C646.276428,93.226974 657.456360,88.937363 670.187256,88.958420 
	C681.042603,88.976372 691.814697,88.937973 702.181091,93.025154 
	C712.822876,97.220901 721.119751,103.922005 726.685913,114.003304 
	C729.599182,119.279610 730.100586,119.182060 733.713440,114.495392 
	C746.518799,97.883972 762.312073,87.881615 784.422058,88.770927 
	C799.991028,89.397156 814.591614,91.323105 826.844788,101.880722 
	C833.347778,107.483879 838.163025,114.495468 840.134338,122.618660 
	C842.826538,133.712418 845.479248,145.116547 845.738586,156.442810 
	C846.478394,188.749985 846.018311,221.085114 845.991760,253.409210 
	C845.975281,273.462219 834.391907,284.284576 814.382324,282.869446 
	C808.742432,282.470551 803.130066,281.680573 797.505371,281.067993 
	C794.749329,280.767883 793.562317,279.491791 793.592224,276.465179 
	C793.822937,253.144394 793.885376,229.821945 794.000000,206.000000 
z"/>
<path fill="#54565A" opacity="1.000000" stroke="none" 
	d="
M1018.987671,252.809753 
	C1018.316589,267.424713 1011.746643,275.620453 997.948425,278.428864 
	C966.997742,284.728485 935.895203,287.018921 904.777527,279.737396 
	C883.877869,274.846893 864.101379,255.132385 863.471863,232.106461 
	C863.269470,224.701385 863.195068,217.188309 864.183105,209.876099 
	C866.544678,192.398819 876.780029,180.198257 891.744141,171.657288 
	C905.670654,163.708481 920.861694,160.394989 936.744568,160.010040 
	C944.868896,159.813141 953.002686,160.041351 961.131226,159.969177 
	C967.137634,159.915863 968.416138,158.379471 967.821899,152.359909 
	C966.730225,141.301880 959.842773,133.659897 948.313782,131.208817 
	C934.933899,128.364258 921.524475,129.011658 908.152710,131.481552 
	C905.696167,131.935287 903.251770,132.515656 900.774292,132.784821 
	C890.081543,133.946594 882.290039,128.801971 879.047852,118.550507 
	C878.947388,118.232864 878.854370,117.912796 878.762024,117.592667 
	C873.967285,100.979744 875.593994,98.026352 892.158936,93.977066 
	C917.344482,87.820465 942.703308,85.103455 968.287048,91.348938 
	C996.982971,98.354149 1013.582642,116.735649 1017.759949,145.961533 
	C1018.534424,151.379974 1018.926453,156.897919 1018.946533,162.371948 
	C1019.056213,192.359558 1018.994995,222.347809 1018.987671,252.809753 
M950.259766,243.746063 
	C954.217285,243.200928 958.164246,242.555374 962.135254,242.138672 
	C966.172180,241.715057 968.009766,239.648010 967.986633,235.578583 
	C967.918518,223.587433 967.938416,211.595596 967.976318,199.604187 
	C967.986816,196.286880 966.716431,194.143066 963.220764,193.778915 
	C951.410461,192.548584 939.624756,191.815369 928.198425,196.153976 
	C917.577942,200.186569 911.472473,209.422531 912.264709,220.157196 
	C913.102234,231.506607 920.013977,239.615250 931.534668,241.881409 
	C937.380859,243.031372 943.420105,243.200043 950.259766,243.746063 
z"/>
<path fill="#54565A" opacity="1.000000" stroke="none" 
	d="
M1911.975586,128.000275 
	C1902.576294,129.017548 1893.582886,129.579056 1884.773071,131.162933 
	C1872.611328,133.349457 1862.742432,127.573303 1859.967651,115.508018 
	C1858.965820,111.152458 1858.550049,106.647369 1858.085938,102.187706 
	C1857.732788,98.794197 1859.114136,96.288704 1862.709229,95.579155 
	C1877.215820,92.716080 1891.622192,88.682480 1906.270386,87.373482 
	C1923.293457,85.852272 1940.541138,86.120583 1957.124146,92.150879 
	C1979.474609,100.278473 1993.591187,115.469101 1998.005493,139.023331 
	C1999.194214,145.365189 1999.872925,151.894958 1999.913330,158.343933 
	C2000.106079,189.158325 2000.015991,219.974640 1999.990723,250.790237 
	C1999.978394,265.791016 1993.454712,274.263641 1978.813477,277.199768 
	C1948.709595,283.236755 1918.449829,285.836090 1888.129883,278.785706 
	C1877.108032,276.222809 1867.656982,270.927307 1859.537231,262.524933 
	C1851.275513,253.975388 1845.733276,244.488831 1844.824585,232.783157 
	C1843.400024,214.431259 1844.347656,196.512955 1858.016113,181.953445 
	C1866.325806,173.101929 1876.442139,167.181732 1887.911743,163.644897 
	C1905.646484,158.176056 1923.844482,156.906708 1942.270142,158.562408 
	C1947.678833,159.048416 1948.875610,158.113815 1948.965942,152.728882 
	C1949.166626,140.761246 1940.859619,131.585068 1927.361572,129.320221 
	C1922.459595,128.497711 1917.433105,128.418671 1911.975586,128.000275 
M1925.004883,191.339691 
	C1920.764771,192.159180 1916.233276,192.301437 1912.357666,193.968399 
	C1907.441162,196.083145 1901.810059,198.457062 1898.682251,202.442139 
	C1890.028198,213.468002 1890.912476,234.932968 1911.905273,240.292953 
	C1922.529785,243.005600 1933.344727,242.631882 1944.097168,240.623337 
	C1947.066284,240.068665 1948.922729,238.488571 1948.923584,235.253189 
	C1948.926514,222.773300 1948.934448,210.293427 1948.929565,197.813538 
	C1948.928223,194.401825 1947.115845,192.485657 1943.802612,192.243149 
	C1937.844971,191.807068 1931.873779,191.553238 1925.004883,191.339691 
z"/>
<path fill="#54565A" opacity="1.000000" stroke="none" 
	d="
M1818.048340,133.053223 
	C1798.416016,165.806000 1778.962524,198.241684 1759.516968,230.682068 
	C1755.785767,236.906799 1756.349854,237.959518 1763.633911,237.979691 
	C1780.297729,238.025833 1796.973389,238.395615 1813.623047,237.910248 
	C1839.832520,237.146194 1845.731201,257.594147 1845.913452,274.089813 
	C1845.950073,277.404541 1844.097900,278.910675 1840.886230,278.938232 
	C1839.386719,278.951111 1837.887329,278.996704 1836.387817,278.996796 
	C1791.561890,278.999908 1746.735840,279.028137 1701.910034,278.951019 
	C1697.770020,278.943878 1693.587769,278.519287 1689.502441,277.830322 
	C1684.116455,276.922089 1681.391357,273.389404 1682.796631,268.202728 
	C1684.126099,263.296112 1686.193237,258.437714 1688.764526,254.042892 
	C1711.311646,215.506378 1734.061890,177.088684 1756.670288,138.587891 
	C1757.771851,136.712158 1758.115112,134.391068 1758.811523,132.277390 
	C1756.605957,131.852051 1754.405151,131.090042 1752.194092,131.059326 
	C1742.364380,130.922745 1732.530884,131.065704 1722.699951,130.978058 
	C1703.046509,130.802856 1689.479126,116.577034 1689.985474,96.994843 
	C1690.095215,92.757690 1691.832764,90.994164 1696.025879,90.999329 
	C1738.185425,91.051285 1780.345215,90.954880 1822.504272,91.107193 
	C1832.477417,91.143219 1836.808960,97.641167 1832.557373,107.015602 
	C1828.517334,115.923416 1823.062500,124.189499 1818.048340,133.053223 
z"/>
<path fill="#4C6971" opacity="1.000000" stroke="none" 
	d="
M2028.133911,119.120834 
	C2014.392212,114.481209 2013.109131,98.793015 2020.798096,91.579468 
	C2027.008423,85.753281 2035.206543,85.029602 2041.788818,89.662170 
	C2048.306152,94.249168 2050.753906,102.045029 2047.868530,109.025764 
	C2044.560913,117.028496 2037.300171,120.858841 2028.133911,119.120834 
M2034.203491,92.037140 
	C2032.205566,92.070015 2030.040771,91.637009 2028.259766,92.275192 
	C2026.681030,92.840881 2024.492188,94.504692 2024.372681,95.844429 
	C2023.915771,100.963638 2024.067383,106.152710 2024.286255,111.303200 
	C2024.328735,112.299294 2025.694946,113.239136 2026.450562,114.204865 
	C2027.250244,113.285065 2028.101074,112.404175 2028.838623,111.436890 
	C2030.100342,109.781891 2031.291016,108.072769 2032.511719,106.386436 
	C2034.010742,107.910492 2035.501709,109.442757 2037.011841,110.955719 
	C2038.051147,111.997101 2039.117432,113.011658 2040.171875,114.038162 
	C2040.724609,112.588165 2041.657104,111.161880 2041.749390,109.683121 
	C2041.931641,106.765068 2041.267700,103.768730 2041.639160,100.893341 
	C2042.363770,95.286270 2040.954712,93.126678 2034.203491,92.037140 
z"/>
<path fill="#4C6971" opacity="1.000000" stroke="none" 
	d="
M1313.975342,240.129974 
	C1303.714966,242.879181 1293.815063,242.395081 1283.871460,240.666245 
	C1279.705688,239.941940 1277.967773,237.695587 1277.986450,233.470459 
	C1278.080200,212.153671 1277.647217,190.824661 1278.277588,169.525955 
	C1278.473267,162.913483 1280.622559,156.033997 1283.291138,149.890976 
	C1288.032715,138.976669 1297.272583,133.720871 1309.032349,133.096313 
	C1321.251953,132.447342 1331.210815,137.306137 1337.081543,147.855789 
	C1340.705078,154.367279 1343.183228,162.015320 1344.127197,169.414429 
	C1346.069580,184.638489 1346.111938,199.980865 1340.678101,214.790359 
	C1336.008057,227.518509 1327.534912,236.194565 1313.975342,240.129974 
z"/>
<path fill="#4C6971" opacity="1.000000" stroke="none" 
	d="
M203.003418,247.075562 
	C188.808044,252.232391 175.195328,253.133987 162.756210,243.833206 
	C153.876999,237.194153 147.735489,228.026337 142.819397,218.261078 
	C136.832748,206.369263 133.430023,193.688721 134.006897,180.194275 
	C134.584076,166.692001 139.441788,154.893967 148.570999,144.963943 
	C162.940918,129.333511 181.085739,121.590057 201.940689,118.853233 
	C217.517059,116.809128 232.283340,118.784683 245.983627,126.129448 
	C259.927307,133.604691 267.258575,145.626770 268.061829,161.705200 
	C269.068481,181.855179 259.707642,197.952225 248.237808,213.075882 
	C236.538849,228.501709 221.445480,239.798050 203.003418,247.075562 
z"/>
<path fill="#4C6971" opacity="1.000000" stroke="none" 
	d="
M1568.779785,203.890472 
	C1572.620850,200.805176 1575.890259,197.155029 1579.973389,195.419968 
	C1591.459839,190.538956 1603.572876,190.123367 1615.809448,192.320862 
	C1619.320068,192.951294 1620.995850,194.857056 1620.979370,198.471786 
	C1620.924561,210.470291 1620.915161,222.469467 1620.986206,234.467804 
	C1621.007935,238.143280 1619.266724,240.345932 1615.753052,240.453369 
	C1605.825684,240.756943 1595.688843,242.087265 1585.999146,240.614166 
	C1566.970093,237.721222 1559.595459,221.261002 1568.779785,203.890472 
z"/>
<path fill="#4C6971" opacity="1.000000" stroke="none" 
	d="
M949.815918,243.779190 
	C943.420105,243.200043 937.380859,243.031372 931.534668,241.881409 
	C920.013977,239.615250 913.102234,231.506607 912.264709,220.157196 
	C911.472473,209.422531 917.577942,200.186569 928.198425,196.153976 
	C939.624756,191.815369 951.410461,192.548584 963.220764,193.778915 
	C966.716431,194.143066 967.986816,196.286880 967.976318,199.604187 
	C967.938416,211.595596 967.918518,223.587433 967.986633,235.578583 
	C968.009766,239.648010 966.172180,241.715057 962.135254,242.138672 
	C958.164246,242.555374 954.217285,243.200928 949.815918,243.779190 
z"/>
<path fill="#4C6971" opacity="1.000000" stroke="none" 
	d="
M1925.456543,191.281494 
	C1931.873779,191.553238 1937.844971,191.807068 1943.802612,192.243149 
	C1947.115845,192.485657 1948.928223,194.401825 1948.929565,197.813538 
	C1948.934448,210.293427 1948.926514,222.773300 1948.923584,235.253189 
	C1948.922729,238.488571 1947.066284,240.068665 1944.097168,240.623337 
	C1933.344727,242.631882 1922.529785,243.005600 1911.905273,240.292953 
	C1890.912476,234.932968 1890.028198,213.468002 1898.682251,202.442139 
	C1901.810059,198.457062 1907.441162,196.083145 1912.357666,193.968399 
	C1916.233276,192.301437 1920.764771,192.159180 1925.456543,191.281494 
z"/>
<path fill="#54565A" opacity="1.000000" stroke="none" 
	d="
M2034.647217,92.056244 
	C2040.954712,93.126678 2042.363770,95.286270 2041.639160,100.893341 
	C2041.267700,103.768730 2041.931641,106.765068 2041.749390,109.683121 
	C2041.657104,111.161880 2040.724609,112.588165 2040.171875,114.038162 
	C2039.117432,113.011658 2038.051147,111.997101 2037.011841,110.955719 
	C2035.501709,109.442757 2034.010742,107.910492 2032.511719,106.386429 
	C2031.291016,108.072769 2030.100342,109.781891 2028.838623,111.436890 
	C2028.101074,112.404175 2027.250244,113.285065 2026.450562,114.204895 
	C2025.694946,113.239136 2024.328735,112.299294 2024.286255,111.303200 
	C2024.067383,106.152710 2023.915771,100.963638 2024.372681,95.844429 
	C2024.492188,94.504692 2026.681030,92.840881 2028.259766,92.275192 
	C2030.040771,91.637009 2032.205566,92.070015 2034.647217,92.056244 
M2029.597656,97.162094 
	C2030.257935,98.614723 2030.571289,100.739014 2031.684937,101.314400 
	C2032.631104,101.803223 2034.659668,100.731674 2035.876221,99.876678 
	C2036.311279,99.570877 2035.937134,97.012856 2035.648560,96.957306 
	C2033.795044,96.600655 2031.862793,96.653587 2029.597656,97.162094 
z"/>
<path fill="#4C6971" opacity="1.000000" stroke="none" 
	d="
M2029.777100,96.867020 
	C2031.862793,96.653587 2033.795044,96.600655 2035.648560,96.957306 
	C2035.937134,97.012856 2036.311279,99.570877 2035.876221,99.876678 
	C2034.659668,100.731674 2032.631104,101.803223 2031.684937,101.314400 
	C2030.571289,100.739014 2030.257935,98.614723 2029.777100,96.867020 
z"/>
</svg>