<svg xmlns="http://www.w3.org/2000/svg" xmlns:xlink="http://www.w3.org/1999/xlink" width="500" zoomAndPan="magnify" viewBox="0 0 375 374.999991" height="500" preserveAspectRatio="xMidYMid meet" version="1.0"><defs><clipPath id="11452b083d"><path d="M 37.5 12.867188 L 357 12.867188 L 357 362.367188 L 37.5 362.367188 Z M 37.5 12.867188 " clip-rule="nonzero"/></clipPath><clipPath id="9b186b5f1a"><path d="M 0.5 0.867188 L 100 0.867188 L 100 350.132812 L 0.5 350.132812 Z M 0.5 0.867188 " clip-rule="nonzero"/></clipPath><clipPath id="bf49d60515"><path d="M 231 94 L 320 94 L 320 245 L 231 245 Z M 231 94 " clip-rule="nonzero"/></clipPath><clipPath id="4f1899e741"><rect x="0" width="320" y="0" height="351"/></clipPath></defs><g clip-path="url(#11452b083d)"><g transform="matrix(1, 0, 0, 1, 37, 12)"><g clip-path="url(#4f1899e741)"><g clip-path="url(#9b186b5f1a)"><path fill="#00adef" d="M 53.046875 0.851562 C 52.707031 0.851562 52.371094 0.851562 52.03125 0.859375 C 38.792969 1.113281 25.707031 6.628906 16.125 15.984375 C 6.0625 25.8125 0.519531 39.074219 0.519531 53.328125 L 0.519531 297.636719 C 0.519531 312.078125 6.183594 325.464844 16.472656 335.332031 C 26.277344 344.738281 39.59375 350.132812 53.007812 350.132812 C 62.042969 350.132812 70.726562 347.804688 78.816406 343.207031 L 97.113281 332.808594 C 92.453125 329.464844 89.414062 324.003906 89.414062 317.847656 L 89.414062 57.121094 C 89.414062 45.03125 89.414062 26.347656 99.75 19.671875 L 78.8125 7.769531 C 70.742188 3.179688 62.074219 0.851562 53.046875 0.851562 Z M 53.046875 0.851562 " fill-opacity="1" fill-rule="nonzero"/></g><g clip-path="url(#bf49d60515)"><path fill="#99def9" d="M 231.417969 231.289062 C 235.65625 244.648438 243.367188 244.644531 245.917969 244.644531 C 251.445312 244.644531 256.902344 242.011719 259.664062 240.441406 L 293.796875 221.050781 C 310.402344 211.613281 320.316406 194.582031 320.316406 175.492188 C 320.316406 156.386719 310.402344 139.355469 293.796875 129.933594 L 231.417969 94.488281 Z M 231.417969 231.289062 " fill-opacity="1" fill-rule="nonzero"/></g><path fill="#66cef5" d="M 108.890625 27.859375 C 106.105469 27.859375 104.1875 28.679688 102.613281 32.882812 C 100.882812 37.507812 100.078125 45.210938 100.078125 57.121094 L 100.078125 138.851562 L 142.472656 281.527344 C 146.652344 295.222656 154.390625 295.222656 156.933594 295.222656 C 162.441406 295.222656 167.953125 292.550781 170.753906 290.957031 L 223.449219 261.015625 L 236.667969 253.503906 C 230.867188 251.089844 224.679688 245.683594 221.113281 234.0625 C 221.074219 233.953125 221.042969 233.84375 221.007812 233.734375 L 220.753906 232.976562 L 220.753906 232.859375 L 169.101562 59.074219 L 117.425781 29.71875 C 113.957031 28.484375 111.085938 27.859375 108.890625 27.859375 Z M 108.890625 27.859375 " fill-opacity="1" fill-rule="nonzero"/></g></g></g></svg>